<?xml version="1.0" encoding="UTF-8" standalone="no"?><!-- Generator: Gravit.io --><svg xmlns="http://www.w3.org/2000/svg" xmlns:xlink="http://www.w3.org/1999/xlink" style="isolation:isolate" viewBox="0 0 512 512" width="512pt" height="512pt"><defs><clipPath id="_clipPath_ctGY9y0VuIlE9U3p5KYinF81Z1u6DSkQ"><rect width="512" height="512"/></clipPath></defs><g clip-path="url(#_clipPath_ctGY9y0VuIlE9U3p5KYinF81Z1u6DSkQ)"><g><path d=" M 501.333 245.181 L 36.423 245.181 L 210.223 71.403 C 214.316 67.167 214.198 60.414 209.961 56.321 C 205.827 52.329 199.274 52.329 195.142 56.321 L 3.145 248.317 C -1.026 252.477 -1.034 259.231 3.126 263.402 C 3.132 263.408 3.139 263.415 3.145 263.421 L 195.142 455.418 C 199.234 459.655 205.986 459.772 210.224 455.68 C 214.461 451.587 214.578 444.835 210.486 440.597 C 210.4 440.508 210.313 440.421 210.224 440.335 L 36.423 266.515 L 501.332 266.515 C 507.223 266.515 511.999 261.739 511.999 255.848 C 511.999 249.957 507.224 245.181 501.333 245.181 Z " fill="rgb(33,150,243)"/><path d=" M 202.671 458.512 C 199.84 458.517 197.124 457.397 195.12 455.397 L 3.123 263.4 C -1.041 259.235 -1.041 252.483 3.123 248.317 L 195.12 56.321 C 199.356 52.228 206.109 52.346 210.202 56.583 C 214.194 60.717 214.194 67.27 210.202 71.402 L 25.758 255.848 L 210.202 440.293 C 214.373 444.453 214.381 451.207 210.221 455.378 C 208.22 457.383 205.504 458.511 202.671 458.512 Z " fill="rgb(29,131,72)"/><path d=" M 501.333 266.515 L 10.675 266.515 C 4.784 266.515 0.008 261.739 0.008 255.848 C 0.008 249.957 4.784 245.181 10.675 245.181 L 501.333 245.181 C 507.224 245.181 512 249.957 512 255.848 C 512 261.739 507.224 266.515 501.333 266.515 Z " fill="rgb(29,131,72)"/></g></g></svg>