<?xml version="1.0" encoding="UTF-8" standalone="no"?><!-- Generator: Gravit.io --><svg xmlns="http://www.w3.org/2000/svg" xmlns:xlink="http://www.w3.org/1999/xlink" style="isolation:isolate" viewBox="0 0 512 512" width="512pt" height="512pt"><defs><clipPath id="_clipPath_cO8pWHggQhjs99LtGVu5mjsZ8E5wumOn"><rect width="512" height="512"/></clipPath></defs><g clip-path="url(#_clipPath_cO8pWHggQhjs99LtGVu5mjsZ8E5wumOn)"><g><g><path d=" M 157.004 277.769 C 147.298 277.769 139.402 285.665 139.402 295.371 L 139.402 396.388 C 139.402 406.094 147.298 413.99 157.004 413.99 L 177.208 413.99 C 186.914 413.99 194.81 406.094 194.81 396.388 L 194.81 295.37 C 194.81 285.665 186.914 277.768 177.208 277.768 L 157.004 277.768 L 157.004 277.769 Z  M 179.809 295.37 L 179.809 396.387 C 179.809 397.822 178.642 398.989 177.207 398.989 L 157.003 398.989 C 155.568 398.989 154.401 397.822 154.401 396.387 L 154.401 295.37 C 154.401 293.935 155.568 292.768 157.003 292.768 L 177.207 292.768 C 178.642 292.769 179.809 293.936 179.809 295.37 Z " fill="rgb(29,131,72)"/><path d=" M 245.898 277.769 C 236.192 277.769 228.296 285.665 228.296 295.371 L 228.296 396.388 C 228.296 406.094 236.192 413.99 245.898 413.99 L 266.101 413.99 C 275.807 413.99 283.703 406.094 283.703 396.388 L 283.703 295.37 C 283.703 285.665 275.807 277.768 266.101 277.768 L 245.898 277.768 L 245.898 277.769 Z  M 268.703 295.37 L 268.703 396.387 C 268.703 397.822 267.536 398.989 266.101 398.989 L 245.898 398.989 C 244.463 398.989 243.296 397.822 243.296 396.387 L 243.296 295.37 C 243.296 293.935 244.463 292.768 245.898 292.768 L 266.101 292.768 C 267.536 292.769 268.703 293.936 268.703 295.37 Z " fill="rgb(29,131,72)"/><path d=" M 354.996 277.769 L 334.792 277.769 C 325.086 277.769 317.19 285.665 317.19 295.371 L 317.19 396.388 C 317.19 406.094 325.086 413.99 334.792 413.99 L 354.996 413.99 C 364.702 413.99 372.598 406.094 372.598 396.388 L 372.598 295.37 C 372.598 285.665 364.702 277.769 354.996 277.769 Z  M 357.598 396.387 C 357.598 397.822 356.431 398.989 354.996 398.989 L 334.792 398.989 C 333.357 398.989 332.19 397.822 332.19 396.387 L 332.19 295.37 C 332.19 293.935 333.357 292.768 334.792 292.768 L 354.996 292.768 C 356.431 292.768 357.598 293.935 357.598 295.37 L 357.598 396.387 Z " fill="rgb(29,131,72)"/><path d=" M 494.4 194.937 L 443.79 194.937 C 439.648 194.937 436.29 198.294 436.29 202.437 C 436.29 206.58 439.648 209.937 443.79 209.937 L 494.4 209.937 C 495.834 209.937 497 211.103 497 212.537 L 497 232.737 C 497 234.175 495.833 235.346 494.4 235.346 L 371.386 235.346 C 371.985 234.18 372.508 232.966 372.945 231.706 C 375.368 224.714 374.924 217.197 371.693 210.54 L 371.4 209.936 L 408.69 209.936 C 412.832 209.936 416.19 206.579 416.19 202.436 C 416.19 198.293 412.832 194.936 408.69 194.936 L 364.121 194.936 L 301.132 65.129 C 294.462 51.387 277.854 45.633 264.114 52.3 C 261.018 53.802 258.287 55.828 256 58.264 C 253.713 55.829 250.982 53.802 247.886 52.3 C 234.143 45.632 217.537 51.387 210.868 65.129 L 147.879 194.937 L 17.6 194.937 C 7.895 194.937 0 202.833 0 212.537 L 0 232.737 C 0 242.447 7.896 250.346 17.6 250.346 L 27.931 250.346 L 58.464 430.976 C 61.546 449.229 77.223 462.477 95.74 462.477 L 351.79 462.477 C 355.932 462.477 359.29 459.12 359.29 454.977 C 359.29 450.834 355.932 447.477 351.79 447.477 L 95.74 447.477 C 84.57 447.477 75.114 439.487 73.255 428.477 L 43.144 250.346 L 65.88 250.346 C 70.022 250.346 73.38 246.989 73.38 242.846 C 73.38 238.703 70.022 235.346 65.88 235.346 L 17.6 235.346 C 16.166 235.346 15 234.175 15 232.737 L 15 212.537 C 15 211.103 16.167 209.937 17.6 209.937 L 140.6 209.937 L 140.307 210.541 C 137.077 217.198 136.632 224.715 139.055 231.707 C 139.492 232.967 140.015 234.181 140.614 235.347 L 100.98 235.347 C 96.838 235.347 93.48 238.704 93.48 242.847 C 93.48 246.99 96.838 250.347 100.98 250.347 L 469.824 250.347 L 438.84 428.583 C 436.939 439.53 427.489 447.477 416.37 447.477 L 386.89 447.477 C 382.748 447.477 379.39 450.834 379.39 454.977 C 379.39 459.12 382.748 462.477 386.89 462.477 L 416.37 462.477 C 434.801 462.477 450.467 449.302 453.619 431.151 L 485.049 250.346 L 494.4 250.346 C 504.105 250.346 512 242.447 512 232.737 L 512 212.537 C 512 202.832 504.104 194.937 494.4 194.937 L 494.4 194.937 Z  M 264.205 73.065 C 265.316 69.859 267.609 67.277 270.662 65.796 C 272.444 64.931 274.329 64.522 276.188 64.522 C 280.904 64.522 285.443 67.159 287.637 71.678 L 358.198 217.089 C 359.679 220.142 359.883 223.588 358.772 226.794 C 357.661 230 355.367 232.582 352.315 234.063 C 349.262 235.546 345.815 235.749 342.609 234.637 C 339.403 233.527 336.822 231.233 335.34 228.18 L 264.779 82.77 C 263.298 79.717 263.094 76.271 264.205 73.065 L 264.205 73.065 Z  M 256 99.037 L 302.536 194.937 L 209.464 194.937 L 256 99.037 Z  M 224.363 71.678 C 226.557 67.157 231.095 64.522 235.812 64.522 C 237.67 64.522 239.557 64.932 241.338 65.796 C 244.39 67.276 246.684 69.858 247.795 73.065 C 248.906 76.271 248.702 79.717 247.221 82.77 L 176.66 228.18 C 175.179 231.233 172.598 233.527 169.391 234.637 C 166.185 235.748 162.738 235.546 159.685 234.063 C 156.633 232.583 154.339 230.001 153.228 226.794 C 152.117 223.588 152.321 220.142 153.802 217.089 L 224.363 71.678 Z  M 190.155 234.729 L 202.185 209.937 L 309.815 209.937 L 321.845 234.729 C 321.946 234.938 322.057 235.14 322.163 235.346 L 189.837 235.346 C 189.943 235.14 190.053 234.938 190.155 234.729 L 190.155 234.729 Z " fill="rgb(29,131,72)"/></g></g></g></svg>