<svg width="80" height="27" xmlns="http://www.w3.org/2000/svg"><g fill="#FFF" fill-rule="evenodd"><path d="M3.006 1A2 2 0 001 3.004v20.992C1 25.103 1.903 26 3.006 26h73.988A2 2 0 0079 23.996V3.004A2.008 2.008 0 0076.994 1H3.006zm0-1h73.988A3.008 3.008 0 0180 3.004v20.992A3 3 0 0176.994 27H3.006A3.008 3.008 0 010 23.996V3.004A3 3 0 013.006 0z" fill-rule="nonzero"/><path d="M54.938 18.575l-.57.535c-.132.072-.263.155-.394.215-.397.179-.8.223-1.158.223-.38 0-.978-.024-1.587-.462-.847-.593-1.217-1.612-1.217-2.5 0-1.838 1.506-2.74 2.733-2.74.43 0 .87.108 1.23.333.595.391.75.9.835 1.173l-2.805 1.126-.918.071c.297 1.507 1.323 2.384 2.457 2.384.566 0 .986-.183 1.372-.373 0 0 .077-.04.022.015zm-1.692-2.998c.228-.082.346-.154.346-.319 0-.473-.54-1.02-1.182-1.02-.477 0-1.372.37-1.372 1.65 0 .2.024.413.036.626l2.172-.937z"/><path d="M49.074 18.483c0 .46.083.532.475.568.204.024.408.035.61.059l-.441.26h-2.102c.275-.355.323-.39.323-.627v-.265l-.005-7.049h-.928l.893-.428h1.706c-.37.213-.48.343-.528.757l-.003 6.725z"/><path d="M45.814 14.429c.274.223.846.698.846 1.6 0 .877-.498 1.291-1 1.683-.155.154-.335.321-.335.58 0 .262.18.404.31.51l.431.331c.524.44 1.002.843 1.002 1.661 0 1.116-1.086 2.24-3.138 2.24-1.729 0-2.564-.818-2.564-1.695 0-.427.213-1.032.919-1.446.74-.45 1.742-.51 2.278-.544-.168-.215-.359-.44-.359-.808 0-.201.06-.321.12-.462-.13.012-.262.025-.382.025-1.265 0-1.98-.938-1.98-1.863 0-.545.25-1.15.764-1.589.68-.556 1.49-.652 2.135-.652h2.458l-.764.429h-.74zm-.845 5.263c-.098-.012-.157-.012-.275-.012-.108 0-.752.023-1.251.19-.264.095-1.028.379-1.028 1.221 0 .84.824 1.446 2.1 1.446 1.144 0 1.753-.545 1.753-1.28 0-.605-.394-.924-1.3-1.565zm.343-2.253c.276-.273.3-.651.3-.866 0-.853-.512-2.18-1.503-2.18-.31 0-.645.154-.835.392-.201.247-.262.567-.262.875 0 .794.466 2.111 1.49 2.111.3 0 .621-.144.81-.332zm-6.894 2.085c-1.896 0-2.91-1.468-2.91-2.796 0-1.553 1.275-2.881 3.09-2.881 1.753 0 2.851 1.364 2.851 2.797 0 1.4-1.085 2.88-3.03 2.88zm1.492-.959c.289-.38.359-.853.359-1.315 0-1.044-.5-3.035-1.98-3.035-.394 0-.79.152-1.076.402-.465.415-.549.936-.549 1.448 0 1.171.583 3.103 2.028 3.103.467 0 .944-.224 1.218-.603zm-7.84.959c-1.896 0-2.91-1.468-2.91-2.796 0-1.553 1.276-2.881 3.09-2.881 1.752 0 2.85 1.364 2.85 2.797 0 1.4-1.084 2.88-3.03 2.88zm1.492-.959c.287-.38.358-.853.358-1.315 0-1.044-.502-3.035-1.98-3.035a1.66 1.66 0 00-1.073.402c-.467.415-.55.936-.55 1.448 0 1.171.585 3.103 2.029 3.103a1.53 1.53 0 001.216-.603zm-5.159.548l-1.6.363c-.647.102-1.23.192-1.845.192-3.085 0-4.26-2.257-4.26-4.023 0-2.158 1.665-4.157 4.517-4.157a6.59 6.59 0 011.713.231c.838.234 1.23.522 1.475.692l-.93.877-.39.087.278-.443c-.378-.367-1.073-1.045-2.393-1.045-1.764 0-3.095 1.333-3.095 3.28 0 2.09 1.52 4.056 3.957 4.056.716 0 1.085-.143 1.42-.277v-1.792l-1.689.09.895-.477h2.37l-.29.277c-.078.066-.089.089-.11.177a7.9 7.9 0 00-.023.536v1.356zm29.973-.488v3.02h-.603v-7.684h.603v.875a2.402 2.402 0 011.946-1.014c1.496 0 2.504 1.128 2.504 2.914 0 1.774-1.008 2.926-2.504 2.926-.788 0-1.493-.404-1.946-1.037zm3.801-1.889c0-1.346-.705-2.372-1.957-2.372-.777 0-1.52.607-1.844 1.136v2.46c.323.53 1.067 1.16 1.844 1.16 1.252 0 1.957-1.036 1.957-2.384zm1.473 2.788v-7.685h.603v7.685h-.603zm7.374 1.625c.128.056.348.092.488.092.37 0 .626-.15.857-.68l.44-.991-2.377-5.61h.673l2.04 4.862 2.018-4.861h.683l-2.9 6.786c-.3.699-.773 1.035-1.423 1.035-.195 0-.452-.035-.603-.08l.104-.553zm-1.763-1.642c-.04-.193-.07-.363-.093-.505a3.304 3.304 0 01-.029-.433c-.207.301-.5.553-.874.75a2.42 2.42 0 01-1.22.298c-.587 0-1.043-.144-1.369-.436-.325-.29-.488-.686-.488-1.185 0-.498.237-.903.708-1.213.472-.31 1.082-.465 1.835-.465h1.408v-.691c0-.398-.137-.711-.41-.938-.273-.227-.657-.343-1.155-.343-.455 0-.824.105-1.105.31-.278.209-.418.467-.418.779h-.618l-.013-.03c-.022-.42.171-.789.583-1.107.409-.318.945-.478 1.605-.478.658 0 1.19.158 1.592.472.4.31.602.76.602 1.348v2.744a3.606 3.606 0 00.154 1.124h-.695v-.001zm-2.141-.437c.513 0 .88-.114 1.258-.34.374-.223.628-.515.761-.869v-1.068h-1.414c-.54 0-.987.119-1.339.359-.352.239-.53.528-.53.864 0 .317.112.571.337.763.226.195.534.29.927.29zM20.683 5.536c0-1.181.883-1.94 1.98-1.94.736 0 1.217.348 1.517.776l-.538.31a1.22 1.22 0 00-.979-.502c-.746 0-1.301.563-1.301 1.356 0 .781.555 1.355 1.301 1.355.385 0 .725-.175.894-.338v-.579h-1.131v-.579h1.788v1.4c-.368.41-.9.686-1.55.686-1.098 0-1.981-.77-1.981-1.945zm4.35 1.872V3.657h2.585v.58h-1.924v.967h1.885v.579h-1.885v1.046h1.924v.58h-2.585zm4.417 0V4.237h-1.143v-.58h2.948v.58h-1.142v3.171zm4.106 0V3.657h.662v3.751zm2.505 0V4.237H34.92v-.58h2.947v.58h-1.143v3.171zm3.942-1.872c0-1.12.798-1.94 1.93-1.94 1.125 0 1.93.82 1.93 1.94 0 1.119-.805 1.94-1.93 1.94-1.132 0-1.93-.821-1.93-1.94zm3.18 0c0-.777-.492-1.356-1.25-1.356-.764 0-1.25.58-1.25 1.356 0 .77.486 1.355 1.25 1.355.758 0 1.25-.585 1.25-1.355zm4.083 1.872l-1.969-2.682v2.682h-.661V3.657h.679l1.929 2.598V3.657h.662v3.751zM6.36 22.109C6.141 22.05 6 21.835 6 21.5v-11c0-.31.12-.517.31-.593l5.423 6.132-5.374 6.07zm.746-.234l6.527-3.689-1.59-1.797-4.937 5.486zm6.572-8.035l-6.436-3.638 4.81 5.474 1.626-1.836zm.436.247l2.522 1.425c.477.27.481.705 0 .977L14.05 17.95l-1.687-1.919 1.75-1.944z"/></g></svg>