<svg width="20" height="20" xmlns="http://www.w3.org/2000/svg"><g fill="#FFF"><path d="M9.98 13.258c-1.81 0-3.3-1.489-3.3-3.3 0-1.811 1.49-3.3 3.3-3.3 1.81 0 3.3 1.489 3.3 3.3 0 1.811-1.49 3.3-3.3 3.3m0-8.451c-2.816 0-5.15 2.294-5.15 5.151a5.134 5.134 0 005.15 5.151c2.858 0 5.15-2.334 5.15-5.15 0-2.818-2.333-5.152-5.15-5.152m5.353-1.287a1.168 1.168 0 100 2.335 1.168 1.168 0 000-2.336"/><path d="M18.19 14.143c0 1.248-.443 2.254-1.168 2.938-.724.684-1.73 1.046-2.937 1.046h-8.21c-1.207 0-2.213-.362-2.937-1.046-.725-.724-1.087-1.73-1.087-2.978v-8.25c0-1.207.362-2.213 1.087-2.937.684-.685 1.73-1.047 2.937-1.047h8.291c1.207 0 2.213.362 2.937 1.087.684.724 1.087 1.73 1.087 2.897v8.29zm.161-12.475C17.304.581 15.815.018 14.125.018h-8.29C2.335.018 0 2.352 0 5.853v8.25c0 1.73.563 3.22 1.69 4.306 1.086 1.046 2.536 1.57 4.185 1.57h8.21c1.73 0 3.18-.564 4.225-1.57 1.087-1.046 1.65-2.535 1.65-4.266v-8.29c0-1.69-.563-3.139-1.609-4.185z"/></g></svg>