<svg width="20" height="16" xmlns="http://www.w3.org/2000/svg"><path d="M19.687 1.893a7.997 7.997 0 01-2.32.636A4.052 4.052 0 0019.144.295a8.08 8.08 0 01-2.565.98A4.04 4.04 0 0013.629 0a4.038 4.038 0 00-3.933 4.959A11.464 11.464 0 011.37.739a4.031 4.031 0 00-.547 2.03A4.04 4.04 0 002.62 6.133a4.028 4.028 0 01-1.829-.506l-.001.05A4.042 4.042 0 004.03 9.64a4.096 4.096 0 01-1.823.069 4.044 4.044 0 003.772 2.805 8.104 8.104 0 01-5.98 1.673A11.442 11.442 0 006.192 16c7.429 0 11.493-6.155 11.493-11.493 0-.174-.006-.349-.013-.522a8.197 8.197 0 002.016-2.092" fill="#FFF"/></svg>