<?xml version="1.0" standalone="no"?><!-- Generator: Gravit.io --><svg xmlns="http://www.w3.org/2000/svg" xmlns:xlink="http://www.w3.org/1999/xlink" style="isolation:isolate" viewBox="0 0 458 438.77" width="458" height="438.77"><defs><clipPath id="_clipPath_W5hwtTHKFagEIqsSEJoxIKXWUU5LKkHX"><rect width="458" height="438.77"/></clipPath></defs><g clip-path="url(#_clipPath_W5hwtTHKFagEIqsSEJoxIKXWUU5LKkHX)"><path d="M 17.99 2.5 L 440.01 2.5 C 448.559 2.5 455.5 9.441 455.5 17.99 L 455.5 111.01 C 455.5 119.559 448.559 126.5 440.01 126.5 L 17.99 126.5 C 9.441 126.5 2.5 119.559 2.5 111.01 L 2.5 17.99 C 2.5 9.441 9.441 2.5 17.99 2.5 Z" style="stroke:none;fill:#008577;stroke-miterlimit:10;"/><path d="M 17.99 2.5 L 440.01 2.5 C 448.559 2.5 455.5 9.441 455.5 17.99 L 455.5 111.01 C 455.5 119.559 448.559 126.5 440.01 126.5 L 17.99 126.5 C 9.441 126.5 2.5 119.559 2.5 111.01 L 2.5 17.99 C 2.5 9.441 9.441 2.5 17.99 2.5 Z" style="fill:none;stroke:#000000;stroke-width:5;stroke-miterlimit:2;"/><mask id="_mask_JUrsS1VuskUTtldgSHcQTycgyiORKkv3" x="-200%" y="-200%" width="400%" height="400%"><rect x="-200%" y="-200%" width="400%" height="400%" style="fill:white;"/><path d=" M 420.5 398.5 C 305.83 398.5 194.17 399.5 79.5 399.5 C 73.5 399.5 44.5 424.5 36.5 431.5 C 35.5 432.39 25.5 439.5 22.5 434.5 C 19.82 430.03 19.5 420.76 19.5 415.13 L 19.5 132.48 C 19.5 129.166 22.186 126.48 25.5 126.48 L 428.57 126.48 C 430.408 126.48 432.171 127.21 433.47 128.51 C 434.77 129.809 435.5 131.572 435.5 133.41 L 435.5 381.5 C 435.5 392.75 427.5 398.5 420.5 398.5 Z " fill="black" stroke="none"/></mask><path d=" M 420.5 398.5 C 305.83 398.5 194.17 399.5 79.5 399.5 C 73.5 399.5 44.5 424.5 36.5 431.5 C 35.5 432.39 25.5 439.5 22.5 434.5 C 19.82 430.03 19.5 420.76 19.5 415.13 L 19.5 132.48 C 19.5 129.166 22.186 126.48 25.5 126.48 L 428.57 126.48 C 430.408 126.48 432.171 127.21 433.47 128.51 C 434.77 129.809 435.5 131.572 435.5 133.41 L 435.5 381.5 C 435.5 392.75 427.5 398.5 420.5 398.5 Z " fill="rgb(0,133,119)" mask="url(#_mask_JUrsS1VuskUTtldgSHcQTycgyiORKkv3)" vector-effect="non-scaling-stroke" stroke-width="10" stroke="rgb(0,0,0)" stroke-linejoin="miter" stroke-linecap="butt" stroke-miterlimit="10"/><mask id="_mask_mK2TzG3pQnjMbIp5qGtrZ8LSvOZZKAo1" x="-200%" y="-200%" width="400%" height="400%"><rect x="-200%" y="-200%" width="400%" height="400%" style="fill:white;"/><path d=" M 420.5 173.83 C 420.497 176.002 419.2 177.964 417.202 178.817 C 415.205 179.67 412.891 179.25 411.32 177.75 C 399.38 166.38 387.44 138.5 375.5 138.5 C 362.72 138.5 349.93 170.5 337.15 179.9 C 335.892 180.849 334.206 181.004 332.796 180.301 C 331.387 179.597 330.497 178.156 330.5 176.58 L 330.5 2.5 L 420.5 2.5 L 420.5 173.83 Z " fill="black" stroke="none"/></mask><path d=" M 420.5 173.83 C 420.497 176.002 419.2 177.964 417.202 178.817 C 415.205 179.67 412.891 179.25 411.32 177.75 C 399.38 166.38 387.44 138.5 375.5 138.5 C 362.72 138.5 349.93 170.5 337.15 179.9 C 335.892 180.849 334.206 181.004 332.796 180.301 C 331.387 179.597 330.497 178.156 330.5 176.58 L 330.5 2.5 L 420.5 2.5 L 420.5 173.83 Z " fill="rgb(0,0,0)" mask="url(#_mask_mK2TzG3pQnjMbIp5qGtrZ8LSvOZZKAo1)" vector-effect="non-scaling-stroke" stroke-width="10" stroke="rgb(0,0,0)" stroke-linejoin="miter" stroke-linecap="butt" stroke-miterlimit="10"/><path d=" M 116.61 221.3 C 116.868 228.627 112.505 235.33 105.7 238.06 C 103.312 239.03 100.813 239.702 98.26 240.06 C 94.947 240.518 91.605 240.732 88.26 240.7 L 86.61 240.7 C 86.185 240.7 85.777 240.53 85.479 240.227 C 85.18 239.925 85.015 239.515 85.02 239.09 C 85.02 237.09 85.02 234.09 85.09 230.23 Q 85.15 222.58 85.15 211.82 Q 85.15 205.24 85.15 199.05 Q 85.15 192.86 85 186.45 L 90.79 186.45 L 90.68 203.34 C 94.72 203.279 98.751 203.726 102.68 204.67 C 105.368 205.361 107.913 206.518 110.2 208.09 C 112.228 209.523 113.864 211.442 114.96 213.67 C 116.094 216.051 116.659 218.663 116.61 221.3 L 116.61 221.3 Z  M 110.75 221.45 C 110.84 218.751 109.948 216.111 108.24 214.02 C 106.535 211.995 104.297 210.488 101.78 209.67 C 100.335 209.191 98.853 208.83 97.35 208.59 C 95.726 208.33 94.084 208.203 92.44 208.21 L 90.65 208.21 C 90.65 208.74 90.65 210.69 90.65 214.04 C 90.65 217.39 90.65 220.15 90.65 222.32 C 90.65 226.4 90.65 229.27 90.65 230.96 C 90.65 232.65 90.65 234.34 90.65 236.08 C 93.117 236.1 95.58 235.896 98.01 235.47 C 100.012 235.143 101.951 234.509 103.76 233.59 C 105.95 232.498 107.772 230.787 109 228.67 C 110.203 226.457 110.806 223.968 110.75 221.45 Z " fill="rgb(0,0,0)"/><path d=" M 159.06 221.61 C 159.068 224.391 158.552 227.149 157.54 229.74 C 156.579 232.242 155.084 234.504 153.16 236.37 C 151.609 237.87 149.787 239.061 147.79 239.88 C 145.665 240.719 143.395 241.13 141.11 241.09 C 138.858 241.109 136.623 240.705 134.52 239.9 C 132.477 239.111 130.611 237.925 129.03 236.41 C 127.126 234.553 125.655 232.3 124.72 229.81 C 123.703 227.172 123.188 224.367 123.2 221.54 C 123.175 218.9 123.615 216.277 124.5 213.79 C 125.387 211.411 126.767 209.247 128.55 207.44 C 130.162 205.748 132.106 204.407 134.26 203.5 C 136.442 202.587 138.785 202.121 141.15 202.13 C 143.51 202.097 145.854 202.525 148.05 203.39 C 150.134 204.249 152.012 205.541 153.56 207.18 C 155.373 209.038 156.783 211.251 157.7 213.68 C 158.626 216.22 159.087 218.906 159.06 221.61 L 159.06 221.61 Z  M 153.2 221.87 C 153.2 219.59 152.821 217.326 152.08 215.17 C 151.389 213.083 150.202 211.196 148.62 209.67 C 147.651 208.729 146.496 208.001 145.23 207.53 C 143.928 207.031 142.545 206.777 141.15 206.78 C 139.644 206.748 138.148 207.02 136.75 207.58 C 135.423 208.181 134.229 209.041 133.24 210.11 C 131.863 211.553 130.818 213.28 130.18 215.17 C 129.433 217.21 129.054 219.367 129.06 221.54 C 129.034 223.876 129.42 226.198 130.2 228.4 C 130.947 230.479 132.206 232.336 133.86 233.8 C 134.817 234.679 135.938 235.359 137.16 235.8 C 138.441 236.267 139.797 236.497 141.16 236.48 C 142.631 236.491 144.091 236.219 145.46 235.68 C 146.778 235.151 147.971 234.35 148.96 233.33 C 150.378 231.872 151.466 230.125 152.15 228.21 C 152.871 226.175 153.226 224.029 153.2 221.87 L 153.2 221.87 Z " fill="rgb(0,0,0)"/><path d=" M 197.76 237.61 L 195.08 239.7 C 194.611 240.061 194.016 240.217 193.43 240.133 C 192.844 240.048 192.317 239.729 191.97 239.25 L 189.75 236.18 Q 186.41 231.56 181.21 224.93 L 181.14 224.93 Q 176.22 231.02 172.68 235.87 L 170 239.6 C 169.714 239.992 169.279 240.251 168.798 240.315 C 168.316 240.379 167.829 240.244 167.45 239.94 L 166.08 238.84 C 165.739 238.573 165.522 238.178 165.481 237.747 C 165.439 237.316 165.576 236.887 165.86 236.56 C 166.61 235.7 167.71 234.39 169.18 232.64 Q 173.11 227.96 178.18 221.64 L 178.18 221.56 Q 174.95 217.44 171.99 213.66 Q 169.61 210.66 166.89 207.25 C 166.526 206.809 166.359 206.238 166.429 205.67 C 166.499 205.103 166.8 204.589 167.26 204.25 L 168.26 203.48 C 168.705 203.143 169.265 202.998 169.818 203.077 C 170.37 203.156 170.867 203.452 171.2 203.9 C 172.56 205.73 173.97 207.63 175.45 209.59 Q 178.35 213.46 181.45 217.52 L 181.52 217.52 Q 184.21 214.04 187.02 210.36 C 188.55 208.36 190.18 206.19 191.89 203.87 C 192.546 203.014 193.763 202.833 194.64 203.46 L 195.83 204.34 C 196.194 204.613 196.43 205.023 196.483 205.475 C 196.536 205.927 196.401 206.38 196.11 206.73 Q 193.11 210.28 190.69 213.22 L 184.44 220.79 L 184.44 220.86 L 193.68 232.42 L 197.76 237.61 Z " fill="rgb(0,0,0)"/><path d=" M 105.15 289.41 C 105.18 291.113 104.722 292.789 103.83 294.24 C 102.966 295.644 101.784 296.826 100.38 297.69 C 98.742 298.679 96.951 299.388 95.08 299.79 C 92.859 300.29 90.587 300.531 88.31 300.51 C 87.11 300.51 85.87 300.45 84.59 300.34 L 84.03 300.34 C 83.103 300.261 82.377 299.509 82.33 298.58 L 82.33 297.5 C 82.306 296.968 82.511 296.45 82.893 296.079 C 83.275 295.708 83.799 295.519 84.33 295.56 L 84.79 295.56 C 86.27 295.67 87.79 295.73 89.21 295.73 C 90.31 295.716 91.408 295.642 92.5 295.51 C 93.646 295.416 94.769 295.142 95.83 294.7 C 96.893 294.282 97.827 293.592 98.54 292.7 C 99.14 291.884 99.449 290.892 99.42 289.88 C 99.463 289.001 99.19 288.135 98.65 287.44 C 98.04 286.732 97.325 286.121 96.53 285.63 C 95.259 284.814 93.921 284.108 92.53 283.52 C 91.065 282.894 89.639 282.179 88.26 281.38 C 86.754 280.5 85.471 279.286 84.51 277.83 C 83.626 276.402 83.174 274.749 83.21 273.07 C 83.186 271.332 83.704 269.631 84.69 268.2 C 85.72 266.731 87.093 265.537 88.69 264.72 C 90.179 263.923 91.797 263.395 93.47 263.16 C 95.152 262.914 96.85 262.787 98.55 262.78 C 100.05 262.78 101.27 262.78 102.22 262.85 L 102.22 262.85 C 103.151 262.902 103.902 263.631 103.98 264.56 L 104.07 265.65 C 104.109 266.191 103.911 266.723 103.527 267.107 C 103.143 267.491 102.611 267.689 102.07 267.65 L 101.97 267.65 C 100.63 267.55 99.17 267.5 97.58 267.5 C 96.503 267.498 95.429 267.595 94.37 267.79 C 93.471 267.949 92.599 268.235 91.78 268.64 C 90.859 269.058 90.078 269.731 89.53 270.58 C 89.103 271.236 88.867 271.998 88.85 272.78 C 88.845 273.718 89.204 274.621 89.85 275.3 C 90.495 276.016 91.252 276.624 92.09 277.1 C 93.09 277.68 94.46 278.38 96.2 279.18 C 97.493 279.76 98.755 280.407 99.98 281.12 C 101.518 282.033 102.849 283.256 103.89 284.71 C 104.777 286.113 105.216 287.752 105.15 289.41 L 105.15 289.41 Z " fill="rgb(0,0,0)"/><path d=" M 145.87 300.14 L 140.09 300.14 Q 140.09 299.05 140.18 293.53 C 140.18 289.86 140.18 287.43 140.18 286.26 C 140.18 285.09 140.18 283.12 140.18 280.64 C 140.18 278.16 140.18 276.35 140.13 275.2 Q 140.03 270.99 138.52 269.2 C 137.52 267.98 135.78 267.37 133.32 267.37 C 131.477 267.471 129.667 267.894 127.97 268.62 C 125.587 269.562 123.286 270.699 121.09 272.02 L 121.23 300.18 L 115.45 300.18 Q 115.45 298.76 115.54 288.66 Q 115.63 278.56 115.59 272.06 C 115.59 269.22 115.59 265.65 115.59 261.34 C 115.59 257.03 115.59 252.08 115.47 246.49 L 115.47 246.49 C 117.001 246.49 118.469 247.102 119.547 248.189 C 120.624 249.276 121.223 250.749 121.21 252.28 L 121.11 267.33 L 121.11 267.33 C 123.846 265.732 126.713 264.371 129.68 263.26 C 131.511 262.583 133.439 262.201 135.39 262.13 C 138.203 262.009 140.937 263.08 142.92 265.08 C 144.903 267.285 145.925 270.189 145.76 273.15 C 145.76 276.23 145.76 278.88 145.7 281.15 C 145.64 283.42 145.65 285.15 145.65 286.58 Q 145.65 289.92 145.72 294.24 Q 145.79 298.56 145.87 300.14 Z " fill="rgb(0,0,0)"/><path d=" M 191.61 281.61 C 191.618 284.391 191.102 287.149 190.09 289.74 C 189.136 292.243 187.644 294.506 185.72 296.37 C 184.168 297.869 182.346 299.06 180.35 299.88 C 178.224 300.718 175.954 301.129 173.67 301.09 C 171.418 301.11 169.183 300.707 167.08 299.9 C 165.033 299.114 163.163 297.927 161.58 296.41 C 159.679 294.553 158.211 292.299 157.28 289.81 C 156.263 287.172 155.748 284.367 155.76 281.54 C 155.73 278.9 156.17 276.276 157.06 273.79 C 157.943 271.41 159.324 269.245 161.11 267.44 C 162.721 265.747 164.665 264.405 166.82 263.5 C 168.998 262.587 171.338 262.121 173.7 262.13 C 176.063 262.098 178.41 262.526 180.61 263.39 C 182.694 264.249 184.572 265.541 186.12 267.18 C 187.927 269.043 189.335 271.255 190.26 273.68 C 191.183 276.221 191.64 278.907 191.61 281.61 Z  M 185.75 281.87 C 185.755 279.59 185.376 277.325 184.63 275.17 C 183.947 273.08 182.759 271.19 181.17 269.67 C 180.203 268.732 179.052 268.003 177.79 267.53 C 176.484 267.03 175.098 266.776 173.7 266.78 C 172.198 266.748 170.704 267.02 169.31 267.58 C 167.978 268.178 166.781 269.038 165.79 270.11 C 164.437 271.561 163.414 273.287 162.79 275.17 C 162.043 277.21 161.664 279.367 161.67 281.54 C 161.646 283.875 162.028 286.196 162.8 288.4 C 163.551 290.479 164.813 292.336 166.47 293.8 C 167.425 294.676 168.543 295.356 169.76 295.8 C 171.042 296.265 172.397 296.495 173.76 296.48 C 175.231 296.491 176.691 296.219 178.06 295.68 C 179.378 295.151 180.571 294.35 181.56 293.33 C 182.979 291.874 184.064 290.127 184.74 288.21 C 185.452 286.174 185.794 284.027 185.75 281.87 Z " fill="rgb(0,0,0)"/><path d=" M 233.43 280.47 C 233.537 283.862 232.662 287.213 230.91 290.12 C 229.221 292.773 226.87 294.94 224.09 296.41 C 221.515 297.751 218.75 298.689 215.89 299.19 C 213.09 299.71 210.248 299.978 207.4 299.99 L 207.54 316.8 L 201.72 316.8 C 201.72 316.39 201.77 313.01 201.81 306.68 C 201.85 300.35 201.87 293.99 201.87 287.62 C 201.87 284.42 201.87 280.7 201.87 276.46 C 201.87 272.9 201.82 269.1 201.78 265.08 C 201.772 264.468 202.008 263.879 202.436 263.441 C 202.864 263.004 203.448 262.755 204.06 262.75 L 205.86 262.75 C 209.856 262.666 213.852 262.937 217.8 263.56 C 220.522 264.055 223.138 265.019 225.53 266.41 C 230.565 269.275 233.616 274.678 233.47 280.47 L 233.43 280.47 Z  M 227.57 280.68 C 227.618 278.466 227.035 276.285 225.89 274.39 C 224.804 272.618 223.291 271.146 221.49 270.11 C 219.749 269.149 217.865 268.473 215.91 268.11 C 213.674 267.667 211.399 267.453 209.12 267.47 L 207.47 267.47 C 207.47 267.88 207.47 269.33 207.41 271.8 C 207.35 274.27 207.41 278.55 207.41 284.62 C 207.41 285.89 207.41 287.67 207.41 289.96 C 207.41 292.25 207.41 294.08 207.41 295.45 C 209.718 295.445 212.021 295.231 214.29 294.81 C 216.265 294.464 218.186 293.855 220 293 C 224.871 290.876 227.907 285.946 227.61 280.64 L 227.57 280.68 Z " fill="rgb(0,0,0)"/><rect x="201" y="300" width="7" height="13" transform="matrix(1,0,0,1,0,0)" fill="rgb(0,133,119)"/><path d=" M 201.5 311.5 L 207.5 311.5 L 207.5 324.5 L 203 324.5 C 202.601 324.503 202.218 324.346 201.936 324.064 C 201.654 323.782 201.497 323.399 201.5 323 L 201.5 311.5 L 201.5 311.5 Z " fill="rgb(0,0,0)"/><rect x="69.65" y="301.5" width="184.71" height="15.5" transform="matrix(1,0,0,1,0,0)" fill="rgb(0,133,119)"/><path d=" M 93.71 310.69 C 93.714 311.432 93.578 312.168 93.31 312.86 C 93.057 313.527 92.657 314.128 92.14 314.62 C 91.729 315.023 91.243 315.342 90.71 315.56 C 90.144 315.784 89.539 315.893 88.93 315.88 C 88.329 315.886 87.732 315.781 87.17 315.57 C 86.627 315.354 86.131 315.035 85.71 314.63 C 85.201 314.14 84.808 313.542 84.56 312.88 C 84.288 312.175 84.149 311.426 84.15 310.67 C 84.144 309.965 84.263 309.264 84.5 308.6 C 84.736 307.967 85.105 307.391 85.58 306.91 C 86.007 306.457 86.525 306.099 87.1 305.86 C 87.683 305.616 88.308 305.49 88.94 305.49 C 89.569 305.484 90.194 305.6 90.78 305.83 C 91.336 306.054 91.838 306.395 92.25 306.83 C 92.729 307.327 93.103 307.915 93.35 308.56 C 93.598 309.242 93.72 309.964 93.71 310.69 Z  M 92.15 310.76 C 92.151 310.151 92.05 309.546 91.85 308.97 C 91.671 308.411 91.355 307.905 90.93 307.5 C 90.67 307.254 90.364 307.06 90.03 306.93 C 89.682 306.798 89.312 306.731 88.94 306.73 C 88.539 306.719 88.14 306.794 87.77 306.95 C 87.415 307.109 87.096 307.336 86.83 307.62 C 86.453 308.012 86.17 308.484 86 309 C 85.808 309.546 85.71 310.121 85.71 310.7 C 85.704 311.323 85.805 311.942 86.01 312.53 C 86.214 313.088 86.559 313.584 87.01 313.97 C 87.262 314.2 87.558 314.377 87.88 314.49 C 88.594 314.75 89.376 314.75 90.09 314.49 C 90.441 314.349 90.759 314.134 91.02 313.86 C 91.397 313.472 91.687 313.009 91.87 312.5 C 92.066 311.941 92.16 311.352 92.15 310.76 L 92.15 310.76 Z " fill="rgb(0,0,0)"/><path d=" M 104.52 315.63 L 103 315.63 C 103 315.45 103 314.85 103 313.82 C 103 312.79 103 312.17 103 311.93 L 103 310.43 C 103 309.77 103 309.29 103 308.98 C 103.035 308.411 102.884 307.846 102.57 307.37 C 102.208 307.006 101.701 306.825 101.19 306.88 C 100.68 306.907 100.178 307.026 99.71 307.23 C 99.094 307.484 98.499 307.785 97.93 308.13 C 97.93 308.2 97.93 308.59 97.93 309.29 C 97.93 309.99 97.93 310.64 97.93 311.22 Q 97.93 312.35 97.93 313.95 C 97.93 315.02 97.93 315.58 97.93 315.63 L 96.39 315.63 C 96.39 315.58 96.39 315.19 96.39 314.43 C 96.39 313.67 96.39 312.56 96.39 311.08 C 96.39 310.4 96.39 309.59 96.39 308.68 C 96.39 307.77 96.39 306.78 96.39 305.75 L 97.91 305.75 L 97.91 306.89 C 98.636 306.459 99.399 306.094 100.19 305.8 C 100.678 305.621 101.191 305.516 101.71 305.49 C 102.459 305.458 103.186 305.745 103.71 306.28 C 104.236 306.869 104.51 307.641 104.47 308.43 C 104.47 309.25 104.47 309.96 104.47 310.56 C 104.47 311.16 104.47 311.64 104.47 312.01 C 104.47 312.6 104.47 313.34 104.47 314.23 C 104.47 315.12 104.52 315.58 104.52 315.63 Z " fill="rgb(0,0,0)"/><path d=" M 109.68 315.63 L 108.14 315.63 C 108.14 315.55 108.14 314.63 108.14 312.77 C 108.14 310.91 108.14 309.43 108.14 308.23 C 108.14 307.45 108.14 306.47 108.14 305.29 C 108.14 304.11 108.14 302.79 108.14 301.29 L 109.68 301.29 Q 109.68 302.8 109.68 304.77 C 109.68 306.09 109.68 307.2 109.68 308.11 C 109.68 310.11 109.68 311.81 109.68 313.29 C 109.68 314.77 109.68 315.56 109.68 315.63 Z " fill="rgb(0,0,0)"/><path d=" M 114.63 303.85 L 113.86 303.85 C 113.734 303.853 113.611 303.804 113.521 303.716 C 113.431 303.627 113.38 303.506 113.38 303.38 L 113.38 302.65 C 113.377 302.522 113.427 302.398 113.518 302.308 C 113.608 302.217 113.732 302.167 113.86 302.17 L 114.63 302.17 C 114.756 302.17 114.877 302.221 114.966 302.311 C 115.054 302.401 115.103 302.524 115.1 302.65 L 115.1 303.38 C 115.1 303.505 115.05 303.624 114.962 303.712 C 114.874 303.8 114.755 303.85 114.63 303.85 L 114.63 303.85 Z  M 115.01 315.63 L 114 315.63 C 113.875 315.63 113.756 315.58 113.668 315.492 C 113.58 315.404 113.53 315.285 113.53 315.16 C 113.53 314.83 113.53 314.35 113.53 313.71 C 113.53 312.53 113.53 311.55 113.53 310.79 C 113.53 310.03 113.53 309.38 113.53 308.57 C 113.53 307.76 113.53 307.11 113.53 306.23 C 113.527 306.104 113.576 305.981 113.664 305.891 C 113.753 305.801 113.874 305.75 114 305.75 L 114.58 305.75 C 114.707 305.75 114.829 305.801 114.919 305.891 C 115.009 305.981 115.06 306.103 115.06 306.23 C 115.06 306.99 115.06 307.7 115.06 308.38 C 115.06 309.06 115.06 309.92 115.06 310.56 C 115.06 312.08 115.06 313.3 115.06 314.21 C 115.06 315.12 115 315.6 115 315.63 L 115.01 315.63 Z " fill="rgb(0,0,0)"/><path d=" M 126.79 315.63 L 125.25 315.63 C 125.25 315.45 125.25 314.85 125.25 313.82 C 125.25 312.79 125.25 312.17 125.25 311.93 C 125.25 311.69 125.25 311.09 125.25 310.43 C 125.25 309.77 125.25 309.29 125.25 308.98 C 125.28 308.411 125.13 307.848 124.82 307.37 C 124.455 307.004 123.944 306.824 123.43 306.88 C 122.923 306.906 122.425 307.025 121.96 307.23 C 121.532 307.402 121.115 307.599 120.71 307.82 C 120.382 308.007 120.177 308.353 120.17 308.73 L 120.17 309.29 C 120.17 310 120.17 310.64 120.17 311.22 C 120.17 311.97 120.17 312.88 120.17 313.95 C 120.17 315.02 120.17 315.58 120.17 315.63 L 118.63 315.63 C 118.63 315.58 118.63 315.19 118.63 314.43 C 118.63 313.67 118.63 312.56 118.63 311.08 L 118.63 308.68 Q 118.63 307.56 118.63 306.31 C 118.63 306.005 118.875 305.755 119.18 305.75 L 120.18 305.75 L 120.18 306.89 C 120.906 306.459 121.669 306.094 122.46 305.8 C 122.948 305.62 123.461 305.515 123.98 305.49 C 124.729 305.455 125.457 305.743 125.98 306.28 C 126.512 306.865 126.786 307.64 126.74 308.43 C 126.74 309.25 126.74 309.96 126.74 310.56 C 126.74 311.16 126.74 311.64 126.74 312.01 Q 126.74 312.9 126.74 314.23 C 126.78 315.12 126.79 315.58 126.79 315.63 Z " fill="rgb(0,0,0)"/><path d=" M 137.38 310.33 L 130.86 310.33 C 130.865 310.988 131.015 311.637 131.3 312.23 C 131.604 312.816 132.06 313.31 132.62 313.66 C 133.018 313.908 133.454 314.09 133.91 314.2 C 134.481 314.33 135.065 314.39 135.65 314.38 Q 136.21 314.38 136.65 314.38 L 137.22 314.38 L 137.04 315.68 L 136.53 315.68 C 136.23 315.68 135.89 315.68 135.53 315.68 C 134.607 315.697 133.687 315.558 132.81 315.27 C 131.474 314.868 130.379 313.904 129.81 312.63 C 129.512 311.985 129.362 311.281 129.37 310.57 C 129.362 309.889 129.473 309.212 129.7 308.57 C 129.926 307.956 130.265 307.389 130.7 306.9 C 131.097 306.465 131.586 306.124 132.13 305.9 C 132.69 305.662 133.292 305.54 133.9 305.54 C 134.45 305.528 134.996 305.623 135.51 305.82 C 135.976 305.998 136.394 306.282 136.73 306.65 C 137.134 307.088 137.434 307.611 137.61 308.18 C 137.781 308.714 137.879 309.269 137.9 309.83 C 137.889 310.109 137.66 310.33 137.38 310.33 L 137.38 310.33 Z  M 136.38 309.23 C 136.321 308.522 136.029 307.854 135.55 307.33 C 135.083 306.868 134.446 306.622 133.79 306.65 C 133.116 306.628 132.46 306.877 131.97 307.34 C 131.57 307.73 131.268 308.21 131.09 308.74 C 131.047 308.851 131.062 308.977 131.13 309.075 C 131.198 309.173 131.31 309.231 131.43 309.23 L 136.38 309.23 Z " fill="rgb(0,0,0)"/><path d=" M 161.77 315.43 L 160.69 315.65 C 160.554 315.676 160.414 315.646 160.301 315.567 C 160.188 315.488 160.112 315.366 160.09 315.23 L 158.16 304.79 L 158.16 304.79 C 157.91 305.32 157.34 306.55 156.47 308.47 C 155.6 310.39 154.84 312.12 154.05 313.95 C 153.968 314.131 153.789 314.248 153.59 314.25 L 152.87 314.25 C 152.689 314.25 152.525 314.145 152.45 313.98 C 151.71 312.27 150.89 310.42 150 308.45 C 149.11 306.48 148.51 305.15 148.35 304.81 L 148.35 304.81 C 148.35 304.98 148.05 306.22 147.56 308.54 C 147.07 310.86 146.66 313 146.24 315.33 C 146.221 315.44 146.158 315.538 146.066 315.602 C 145.974 315.666 145.86 315.69 145.75 315.67 L 145.12 315.56 C 145.001 315.536 144.897 315.465 144.831 315.364 C 144.766 315.262 144.743 315.138 144.77 315.02 Q 145.68 311.02 146.49 307.13 C 146.9 305.13 147.17 303.8 147.31 303.13 C 147.375 302.839 147.614 302.619 147.91 302.58 L 148.97 302.43 C 149.03 302.58 149.49 303.63 150.35 305.57 C 151.21 307.51 152.21 309.76 153.35 312.3 L 153.41 312.3 C 154.3 310.3 155.23 308.19 156.22 305.93 C 157.21 303.67 157.73 302.51 157.77 302.43 L 159.24 302.54 C 159.24 302.69 159.53 304.11 160.05 306.83 C 160.57 309.55 161.14 312.39 161.77 315.43 Z " fill="rgb(0,0,0)"/><path d=" M 171.22 310.06 C 171.22 311.68 171.22 312.99 171.22 314.01 C 171.22 315.03 171.22 315.57 171.22 315.65 L 170.32 315.72 C 169.78 315.72 169.08 315.79 168.23 315.79 C 167.69 315.79 167.151 315.739 166.62 315.64 C 166.138 315.559 165.667 315.418 165.22 315.22 C 164.722 314.994 164.287 314.651 163.95 314.22 C 163.623 313.79 163.454 313.26 163.47 312.72 C 163.46 312.132 163.662 311.56 164.04 311.11 C 164.474 310.621 165.019 310.243 165.63 310.01 C 166.178 309.803 166.744 309.646 167.32 309.54 C 168.12 309.386 168.928 309.28 169.74 309.22 C 169.717 308.779 169.587 308.349 169.36 307.97 C 169.114 307.623 168.764 307.364 168.36 307.23 C 168.056 307.106 167.736 307.022 167.41 306.98 C 166.999 306.929 166.584 306.905 166.17 306.91 L 165.43 306.91 L 164.59 306.96 L 164.75 305.66 L 165.33 305.66 L 166.52 305.66 C 167.194 305.655 167.866 305.736 168.52 305.9 C 169.075 306.037 169.589 306.304 170.02 306.68 C 170.397 307.022 170.686 307.451 170.86 307.93 C 171.1 308.614 171.222 309.335 171.22 310.06 Z  M 169.73 312.42 L 169.73 311.58 C 169.73 311.24 169.73 310.85 169.73 310.41 C 169.44 310.41 168.94 310.48 168.23 310.58 C 167.612 310.654 167.005 310.798 166.42 311.01 C 166.045 311.14 165.703 311.352 165.42 311.63 C 165.14 311.886 164.983 312.25 164.99 312.63 C 164.972 313.019 165.101 313.401 165.35 313.7 C 165.624 313.99 165.969 314.204 166.35 314.32 C 166.694 314.436 167.049 314.516 167.41 314.56 C 167.818 314.609 168.229 314.633 168.64 314.63 L 169.11 314.63 L 169.71 314.63 C 169.71 314.63 169.71 314.37 169.71 313.99 L 169.73 312.42 Z " fill="rgb(0,0,0)"/><path d=" M 180.42 306.9 C 179.863 307.046 179.315 307.227 178.78 307.44 C 178.04 307.71 177.19 308.07 176.22 308.53 C 176.22 308.6 176.22 308.93 176.22 309.53 C 176.22 310.13 176.22 310.66 176.22 311.16 Q 176.22 312.32 176.22 313.89 C 176.22 314.95 176.22 315.53 176.22 315.65 L 174.68 315.65 C 174.68 315.54 174.68 315.17 174.68 314.56 C 174.68 313.95 174.68 312.88 174.68 311.38 C 174.68 310.78 174.68 309.93 174.68 308.84 C 174.68 307.93 174.68 307.05 174.68 306.23 C 174.674 306.108 174.72 305.989 174.805 305.902 C 174.89 305.815 175.008 305.767 175.13 305.77 L 176.18 305.77 L 176.18 307.25 L 176.18 307.25 C 176.885 306.848 177.613 306.488 178.36 306.17 C 178.917 305.918 179.492 305.708 180.08 305.54 L 180.42 306.9 Z " fill="rgb(0,0,0)"/><path d=" M 184 315.63 L 182.46 315.63 C 182.46 315.51 182.46 314.63 182.46 312.99 C 182.46 311.35 182.46 309.67 182.46 307.99 L 182.46 305.21 C 182.46 304.09 182.46 302.81 182.46 301.35 L 184 301.35 C 184 302.51 184 303.84 184 305.35 L 184 308 C 184 308.67 184 310.08 184 312.22 C 184 314.36 184 315.52 184 315.63 Z  M 191 315.43 L 190.07 316.28 C 188.63 314.82 187.35 313.54 186.22 312.46 L 184.35 310.66 L 184.35 310.66 C 184.51 310.52 185.19 309.82 186.4 308.58 C 187.61 307.34 188.6 306.33 189.35 305.53 L 190.29 306.53 L 187.85 308.9 L 186.25 310.46 L 186.25 310.46 L 191 315.43 Z " fill="rgb(0,0,0)"/><path d=" M 200.52 310.33 L 193.46 310.33 C 193.46 310.989 193.61 311.639 193.9 312.23 C 194.204 312.816 194.66 313.31 195.22 313.66 C 195.618 313.908 196.054 314.09 196.51 314.2 C 197.081 314.33 197.665 314.39 198.25 314.38 Q 198.81 314.38 199.25 314.38 L 199.82 314.38 L 199.64 315.68 L 199.12 315.68 C 198.83 315.68 198.49 315.68 198.12 315.68 C 197.197 315.697 196.277 315.558 195.4 315.27 C 194.064 314.868 192.969 313.904 192.4 312.63 C 192.097 311.986 191.947 311.281 191.96 310.57 C 191.952 309.889 192.063 309.212 192.29 308.57 C 192.519 307.957 192.858 307.391 193.29 306.9 C 193.692 306.466 194.183 306.125 194.73 305.9 C 195.289 305.661 195.892 305.539 196.5 305.54 C 197.05 305.529 197.596 305.624 198.11 305.82 C 198.575 306 198.992 306.284 199.33 306.65 C 199.729 307.092 200.029 307.613 200.21 308.18 C 200.419 308.877 200.523 309.602 200.52 310.33 Z  M 199.01 309.23 C 198.947 308.523 198.655 307.857 198.18 307.33 C 197.713 306.868 197.076 306.622 196.42 306.65 C 195.743 306.63 195.085 306.878 194.59 307.34 C 194.08 307.86 193.733 308.516 193.59 309.23 L 199.01 309.23 Z " fill="rgb(0,0,0)"/><path d=" M 208.47 314.42 L 208.29 315.66 L 207.96 315.66 L 207.49 315.66 C 206.423 315.732 205.364 315.435 204.49 314.82 C 203.773 314.171 203.403 313.223 203.49 312.26 C 203.49 311.54 203.49 310.76 203.49 309.94 C 203.49 309.12 203.49 308.08 203.49 306.86 L 201.85 306.86 L 201.85 305.72 L 203.58 305.72 L 203.58 303.4 L 205 303.4 L 205 305.72 L 208.5 305.72 L 208.5 306.86 L 205 306.86 C 205 307 205 307.4 205 308.08 C 205 308.76 205 309.26 205 309.58 L 205 312 C 204.937 312.683 205.192 313.358 205.69 313.83 C 206.31 314.25 207.054 314.447 207.8 314.39 L 208.53 314.39 L 208.47 314.42 Z " fill="rgb(0,0,0)"/><path d=" M 212.68 303.85 L 211 303.85 L 211 302.17 L 212.72 302.17 L 212.68 303.85 Z  M 212.59 315.63 L 211.05 315.63 C 211.05 315.53 211.05 314.88 211.05 313.71 C 211.05 312.54 211.05 311.55 211.05 310.79 C 211.05 310.03 211.05 309.38 211.05 308.57 C 211.05 307.76 211.05 306.83 211.05 305.75 L 212.59 305.75 C 212.59 306.68 212.59 307.56 212.59 308.38 C 212.59 309.2 212.59 309.92 212.59 310.56 C 212.59 312.08 212.59 313.3 212.59 314.21 C 212.59 315.12 212.59 315.6 212.59 315.63 Z " fill="rgb(0,0,0)"/><path d=" M 224.37 315.63 L 222.83 315.63 C 222.83 315.45 222.83 314.85 222.83 313.82 C 222.83 312.79 222.83 312.17 222.83 311.93 L 222.83 310.43 C 222.83 309.77 222.83 309.29 222.83 308.98 C 222.86 308.411 222.71 307.848 222.4 307.37 C 222.035 307.004 221.524 306.824 221.01 306.88 C 220.5 306.907 219.998 307.026 219.53 307.23 C 218.919 307.486 218.327 307.787 217.76 308.13 C 217.76 308.2 217.76 308.59 217.76 309.29 C 217.76 309.99 217.76 310.64 217.76 311.22 C 217.76 311.97 217.76 312.88 217.76 313.95 C 217.76 315.02 217.76 315.58 217.76 315.63 L 216.21 315.63 C 216.21 315.58 216.21 315.19 216.21 314.43 C 216.21 313.67 216.21 312.56 216.21 311.08 L 216.21 308.68 C 216.21 307.76 216.21 306.78 216.21 305.75 L 217.74 305.75 L 217.74 306.89 C 218.466 306.459 219.229 306.094 220.02 305.8 C 220.508 305.62 221.021 305.515 221.54 305.49 C 222.289 305.455 223.017 305.743 223.54 306.28 C 224.072 306.865 224.346 307.64 224.3 308.43 C 224.3 309.25 224.3 309.96 224.3 310.56 C 224.3 311.16 224.3 311.64 224.3 312.01 C 224.3 312.6 224.3 313.34 224.3 314.23 C 224.3 315.12 224.37 315.58 224.37 315.63 Z " fill="rgb(0,0,0)"/><path d=" M 235.36 305.66 C 235.36 305.8 235.36 306.45 235.36 307.59 C 235.36 308.73 235.36 309.83 235.36 310.86 C 235.36 311.57 235.36 312.28 235.36 313.01 C 235.36 313.74 235.36 314.41 235.36 315.01 C 235.406 315.92 235.206 316.825 234.78 317.63 C 234.387 318.274 233.828 318.799 233.16 319.15 C 232.525 319.459 231.853 319.685 231.16 319.82 C 230.208 320.002 229.239 320.086 228.27 320.07 L 228.11 318.83 C 228.795 318.825 229.479 318.785 230.16 318.71 C 230.724 318.654 231.278 318.526 231.81 318.33 C 232.449 318.137 233.007 317.74 233.4 317.2 C 233.716 316.679 233.879 316.079 233.87 315.47 L 233.4 315.47 C 232.596 315.466 231.795 315.376 231.01 315.2 C 230.26 315.038 229.548 314.736 228.91 314.31 C 227.634 313.479 226.898 312.031 226.98 310.51 C 226.963 309.647 227.226 308.801 227.73 308.1 C 228.246 307.387 228.934 306.816 229.73 306.44 C 230.362 306.136 231.036 305.931 231.73 305.83 C 232.578 305.709 233.434 305.652 234.29 305.66 L 235.42 305.66 L 235.36 305.66 Z  M 233.86 310.85 L 233.86 309.09 Q 233.86 308.04 233.86 306.9 L 233.61 306.9 C 233.071 306.886 232.533 306.92 232 307 C 231.506 307.084 231.026 307.232 230.57 307.44 C 229.947 307.69 229.416 308.127 229.05 308.69 C 228.696 309.253 228.512 309.905 228.52 310.57 C 228.501 311.219 228.682 311.858 229.04 312.4 C 229.394 312.91 229.877 313.317 230.44 313.58 C 230.882 313.783 231.345 313.937 231.82 314.04 C 232.369 314.154 232.929 314.211 233.49 314.21 L 233.85 314.21 C 233.85 314.14 233.85 313.77 233.85 313.13 C 233.85 312.49 233.86 311.73 233.86 310.85 Z " fill="rgb(0,0,0)"/></g></svg>