<?xml version="1.0" encoding="iso-8859-1"?>
<!-- Generator: Adobe Illustrator 19.0.0, SVG Export Plug-In . SVG Version: 6.00 Build 0)  -->
<svg version="1.1" id="Capa_1" xmlns="http://www.w3.org/2000/svg" xmlns:xlink="http://www.w3.org/1999/xlink" x="0px" y="0px"
	 viewBox="0 0 477.867 477.867" style="enable-background:new 0 0 477.867 477.867;" xml:space="preserve">
<g>
	<g>
		<path d="M153.6,0H17.067C7.641,0,0,7.641,0,17.067V153.6c0,9.426,7.641,17.067,17.067,17.067H153.6
			c9.426,0,17.067-7.641,17.067-17.067V17.067C170.667,7.641,163.026,0,153.6,0z M136.533,136.533h-102.4v-102.4h102.4V136.533z"/>
	</g>
</g>
<g>
	<g>
		<path d="M85.333,51.2c-9.426,0-17.067,7.641-17.067,17.067V102.4c0,9.426,7.641,17.067,17.067,17.067S102.4,111.826,102.4,102.4
			V68.267C102.4,58.841,94.759,51.2,85.333,51.2z"/>
	</g>
</g>
<g>
	<g>
		<path d="M153.6,307.2H17.067C7.641,307.2,0,314.841,0,324.267V460.8c0,9.426,7.641,17.067,17.067,17.067H153.6
			c9.426,0,17.067-7.641,17.067-17.067V324.267C170.667,314.841,163.026,307.2,153.6,307.2z M136.533,443.733h-102.4v-102.4h102.4
			V443.733z"/>
	</g>
</g>
<g>
	<g>
		<path d="M85.333,358.4c-9.426,0-17.067,7.641-17.067,17.067V409.6c0,9.426,7.641,17.067,17.067,17.067S102.4,419.026,102.4,409.6
			v-34.133C102.4,366.041,94.759,358.4,85.333,358.4z"/>
	</g>
</g>
<g>
	<g>
		<path d="M460.8,307.2H324.267c-9.426,0-17.067,7.641-17.067,17.067V460.8c0,9.426,7.641,17.067,17.067,17.067H460.8
			c9.426,0,17.067-7.641,17.067-17.067V324.267C477.867,314.841,470.226,307.2,460.8,307.2z M443.733,443.733h-102.4v-102.4h102.4
			V443.733z"/>
	</g>
</g>
<g>
	<g>
		<path d="M392.533,358.4c-9.426,0-17.067,7.641-17.067,17.067V409.6c0,9.426,7.641,17.067,17.067,17.067S409.6,419.026,409.6,409.6
			v-34.133C409.6,366.041,401.959,358.4,392.533,358.4z"/>
	</g>
</g>
<g>
	<g>
		<path d="M460.8,0h-85.333C366.041,0,358.4,7.641,358.4,17.067s7.641,17.067,17.067,17.067h68.267V102.4
			c0,9.426,7.641,17.067,17.067,17.067s17.067-7.641,17.067-17.067V17.067C477.867,7.641,470.226,0,460.8,0z"/>
	</g>
</g>
<g>
	<g>
		<path d="M204.8,375.467c-9.426,0-17.067,7.641-17.067,17.067V460.8c0,9.426,7.641,17.067,17.067,17.067
			s17.067-7.641,17.067-17.067v-68.267C221.867,383.108,214.226,375.467,204.8,375.467z"/>
	</g>
</g>
<g>
	<g>
		<path d="M290.133,170.667H204.8c-9.426,0-17.067,7.641-17.067,17.067V256h-51.2c-9.426,0-17.067,7.641-17.067,17.067
			s7.641,17.067,17.067,17.067H204.8c9.426,0,17.067-7.641,17.067-17.067V204.8h68.267c9.426,0,17.067-7.641,17.067-17.067
			C307.2,178.308,299.559,170.667,290.133,170.667z"/>
	</g>
</g>
<g>
	<g>
		<path d="M153.6,204.8H85.333c-9.426,0-17.067,7.641-17.067,17.067s7.641,17.067,17.067,17.067H153.6
			c9.426,0,17.067-7.641,17.067-17.067S163.026,204.8,153.6,204.8z"/>
	</g>
</g>
<g>
	<g>
		<path d="M290.133,119.467h-68.267v-51.2c0-9.426-7.641-17.067-17.067-17.067s-17.067,7.641-17.067,17.067v68.267
			c0,9.426,7.641,17.067,17.067,17.067h85.333c9.426,0,17.067-7.641,17.067-17.067C307.2,127.108,299.559,119.467,290.133,119.467z"
			/>
	</g>
</g>
<g>
	<g>
		<path d="M409.6,68.267h-68.267v-51.2C341.333,7.641,333.692,0,324.267,0H204.8c-9.426,0-17.067,7.641-17.067,17.067
			s7.641,17.067,17.067,17.067h102.4v51.2c0,9.426,7.641,17.067,17.067,17.067H409.6c9.426,0,17.067-7.641,17.067-17.067
			S419.026,68.267,409.6,68.267z"/>
	</g>
</g>
<g>
	<g>
		<path d="M341.333,119.467c-9.426,0-17.067,7.641-17.067,17.067V204.8c0,9.426,7.641,17.067,17.067,17.067
			S358.4,214.226,358.4,204.8v-68.267C358.4,127.108,350.759,119.467,341.333,119.467z"/>
	</g>
</g>
<g>
	<g>
		<path d="M460.8,136.533h-68.267c-9.426,0-17.067,7.641-17.067,17.067s7.641,17.067,17.067,17.067H460.8
			c9.426,0,17.067-7.641,17.067-17.067S470.226,136.533,460.8,136.533z"/>
	</g>
</g>
<g>
	<g>
		<path d="M460.8,187.733h-68.267c-9.426,0-17.067,7.641-17.067,17.067s7.641,17.067,17.067,17.067h51.2v51.2
			c0,9.426,7.641,17.067,17.067,17.067s17.067-7.641,17.067-17.067V204.8C477.867,195.374,470.226,187.733,460.8,187.733z"/>
	</g>
</g>
<g>
	<g>
		<path d="M409.6,238.933h-85.333c-9.426,0-17.067,7.641-17.067,17.067s7.641,17.067,17.067,17.067H409.6
			c9.426,0,17.067-7.641,17.067-17.067S419.026,238.933,409.6,238.933z"/>
	</g>
</g>
<g>
	<g>
		<path d="M273.067,324.267H204.8c-9.426,0-17.067,7.641-17.067,17.067S195.374,358.4,204.8,358.4H256v102.4
			c0,9.426,7.641,17.067,17.067,17.067s17.067-7.641,17.067-17.067V341.333C290.133,331.908,282.492,324.267,273.067,324.267z"/>
	</g>
</g>
<g>
	<g>
		<path d="M273.067,273.067H256c-9.426,0-17.067,7.641-17.067,17.067S246.574,307.2,256,307.2h17.067
			c9.426,0,17.067-7.641,17.067-17.067S282.492,273.067,273.067,273.067z"/>
	</g>
</g>
<g>
	<g>
		<path d="M273.067,221.867H256c-9.426,0-17.067,7.641-17.067,17.067S246.574,256,256,256h17.067
			c9.426,0,17.067-7.641,17.067-17.067S282.492,221.867,273.067,221.867z"/>
	</g>
</g>
<g>
	<g>
		<path d="M68.267,256h-51.2C7.641,256,0,263.641,0,273.067s7.641,17.067,17.067,17.067h51.2c9.426,0,17.067-7.641,17.067-17.067
			S77.692,256,68.267,256z"/>
	</g>
</g>
<g>
	<g>
		<path d="M256,51.2c-9.426,0-17.067,7.641-17.067,17.067v17.067c0,9.426,7.641,17.067,17.067,17.067
			c9.426,0,17.067-7.641,17.067-17.067V68.267C273.067,58.841,265.426,51.2,256,51.2z"/>
	</g>
</g>
<g>
	<g>
		<path d="M34.133,204.8H17.067C7.641,204.8,0,212.441,0,221.867s7.641,17.067,17.067,17.067h17.067
			c9.426,0,17.067-7.641,17.067-17.067S43.559,204.8,34.133,204.8z"/>
	</g>
</g>
<g>
</g>
<g>
</g>
<g>
</g>
<g>
</g>
<g>
</g>
<g>
</g>
<g>
</g>
<g>
</g>
<g>
</g>
<g>
</g>
<g>
</g>
<g>
</g>
<g>
</g>
<g>
</g>
<g>
</g>
</svg>
