<?xml version="1.0" standalone="no"?><!-- Generator: Gravit.io --><svg xmlns="http://www.w3.org/2000/svg" xmlns:xlink="http://www.w3.org/1999/xlink" style="isolation:isolate" viewBox="0 0 512 512" width="512" height="512"><defs><clipPath id="_clipPath_HWI9ipZt8PEB8CoQi7pSYEHtrNGbkap3"><rect width="512" height="512"/></clipPath></defs><g clip-path="url(#_clipPath_HWI9ipZt8PEB8CoQi7pSYEHtrNGbkap3)"><path d=" M 461.285 292.508 L 384.793 287.043 L 334.238 202.828 L 308.965 160.66 L 308.965 148.981 C 308.972 136.305 298.703 126.024 286.027 126.016 C 283.187 126.012 280.371 126.539 277.726 127.563 L 205.039 155.602 L 210.531 137.168 C 214.867 121.672 207.832 105.246 193.625 97.692 L 136.59 67.051 C 132.441 64.824 127.273 66.246 124.848 70.281 L 41.187 204.25 L 39.422 203.227 C 35.195 200.797 29.801 202.258 27.375 206.484 C 27.32 206.574 27.273 206.664 27.223 206.758 L 1.031 256.066 C -1.227 260.324 0.348 265.602 4.562 267.934 L 323.097 444.484 C 324.406 445.207 325.875 445.586 327.371 445.586 L 459.035 445.586 C 488.273 445.559 511.972 421.863 512 392.621 L 512 346.965 C 511.906 318.355 489.816 294.637 461.285 292.508 L 461.285 292.508 Z  M 366.343 290.617 L 356.261 293.98 L 277.273 191.281 L 297.578 176.035 L 366.343 290.617 Z  M 135.652 86.586 L 185.273 113.219 C 192.152 116.856 195.59 124.77 193.555 132.277 L 186.262 156.856 L 135.59 126.469 L 118.043 115.938 L 135.652 86.586 Z  M 83.387 170.836 L 87.906 163.774 L 116.949 185.375 C 131.73 196.473 139.277 214.75 136.633 233.047 L 135.531 258.559 L 56.637 213.086 L 83.387 170.836 Z  M 459.035 427.934 L 329.64 427.934 L 20.676 256.676 L 38.516 223.133 L 331.035 391.445 C 332.379 392.219 333.898 392.625 335.449 392.621 L 494.343 392.621 C 494.343 412.121 478.535 427.934 459.035 427.934 L 459.035 427.934 Z  M 494.343 374.965 L 337.804 374.965 L 277.258 340.105 L 297.613 319.352 C 300.976 315.824 300.844 310.234 297.312 306.871 C 293.855 303.574 288.402 303.629 285.008 306.992 L 261.457 331.004 L 227.91 311.672 L 261.555 284.758 C 265.359 281.711 265.976 276.152 262.93 272.344 C 259.883 268.539 254.324 267.922 250.519 270.969 L 211.473 302.211 L 182.73 285.684 L 226.34 249.34 C 230.09 246.219 230.597 240.652 227.48 236.902 C 224.359 233.152 218.789 232.645 215.039 235.762 L 166.418 276.289 L 152.769 268.434 L 154.199 234.547 C 157.469 210.133 147.238 185.867 127.48 171.164 L 97.402 148.801 L 108.766 130.961 L 186.906 177.844 C 187.957 178.449 189.121 178.824 190.324 178.949 C 190.535 178.949 190.719 179.02 190.933 179.035 C 191.144 179.055 191.277 179.098 191.445 179.098 C 192.535 179.102 193.621 178.902 194.64 178.508 L 284.062 144.02 C 285.699 143.395 287.531 143.609 288.98 144.594 C 290.433 145.59 291.297 147.242 291.285 149.008 L 291.285 158.719 L 259.504 182.551 C 255.605 185.481 254.82 191.016 257.75 194.91 C 257.769 194.938 257.789 194.965 257.808 194.988 L 346.086 309.75 C 348.367 312.738 352.301 313.941 355.867 312.742 L 380.679 304.469 L 460.007 310.137 C 479.312 311.566 494.269 327.605 494.343 346.965 L 494.343 374.965 Z " fill="rgb(255,255,255)"/><path d=" M 52.965 322 L 8.828 322 C 3.953 322 0 325.953 0 330.828 C 0 335.703 3.953 339.656 8.828 339.656 L 52.965 339.656 C 57.84 339.656 61.793 335.703 61.793 330.828 C 61.793 325.953 57.84 322 52.965 322 Z " fill="rgb(255,255,255)"/><path d=" M 0 383.793 C 0 388.668 3.953 392.621 8.828 392.621 L 123.586 392.621 C 128.461 392.621 132.414 388.668 132.414 383.793 C 132.414 378.918 128.461 374.965 123.586 374.965 L 8.828 374.965 C 3.953 374.965 0 378.918 0 383.793 Z " fill="rgb(255,255,255)"/><path d=" M 220.691 427.934 L 8.828 427.934 C 3.953 427.934 0 431.883 0 436.758 C 0 441.633 3.953 445.586 8.828 445.586 L 220.691 445.586 C 225.566 445.586 229.515 441.633 229.515 436.758 C 229.515 431.883 225.566 427.934 220.691 427.934 Z " fill="rgb(255,255,255)"/></g></svg>