<?xml version="1.0" encoding="UTF-8" standalone="no"?><!-- Generator: Gravit.io --><svg xmlns="http://www.w3.org/2000/svg" xmlns:xlink="http://www.w3.org/1999/xlink" style="isolation:isolate" viewBox="0 0 512 512" width="512pt" height="512pt"><defs><clipPath id="_clipPath_xpUNtvM3a65qIGJIojyYZAzHU3chRImE"><rect width="512" height="512"/></clipPath></defs><g clip-path="url(#_clipPath_xpUNtvM3a65qIGJIojyYZAzHU3chRImE)"><g><path d=" M 256 512 C 195.385 512 136.594 490.436 90.457 451.279 C 79.624 442.091 69.462 431.904 60.256 421.004 C 21.397 374.944 0 316.347 0 256 C 0 187.619 26.628 123.332 74.98 74.98 C 123.332 26.628 187.619 0 256 0 C 324.381 0 388.668 26.628 437.02 74.98 C 485.372 123.332 512 187.619 512 256 C 512 316.348 490.603 374.945 451.749 420.998 C 442.538 431.904 432.376 442.091 421.54 451.282 C 375.406 490.436 316.615 512 256 512 Z  M 256 32 C 132.486 32 32 132.486 32 256 C 32 308.805 50.719 360.074 84.709 400.363 C 92.769 409.906 101.67 418.829 111.16 426.879 C 151.524 461.135 202.961 480 256 480 C 309.039 480 360.476 461.135 400.837 426.881 C 410.33 418.829 419.231 409.905 427.296 400.356 C 461.281 360.075 480 308.806 480 256 C 480 132.486 379.514 32 256 32 Z " fill="rgb(29,131,72)"/><path d=" M 256 256 C 203.065 256 160 212.935 160 160 C 160 107.065 203.065 64 256 64 C 308.935 64 352 107.065 352 160 C 352 212.935 308.935 256 256 256 Z  M 256 96 C 220.71 96 192 124.71 192 160 C 192 195.29 220.71 224 256 224 C 291.29 224 320 195.29 320 160 C 320 124.71 291.29 96 256 96 Z " fill="rgb(29,131,72)"/><path d=" M 411.202 455.084 C 409.912 455.084 408.602 454.927 407.294 454.599 C 398.724 452.448 393.52 443.756 395.671 435.185 C 398.543 423.742 400 411.904 400 400 C 400 321.715 336.354 257.134 258.107 256.01 L 256 256 L 253.893 256.01 C 175.646 257.134 112 321.715 112 400 C 112 411.904 113.457 423.742 116.329 435.185 C 118.48 443.756 113.276 452.448 104.706 454.599 C 96.136 456.75 87.443 451.547 85.292 442.976 C 81.78 428.987 80 414.528 80 400 C 80 353.422 98.017 309.517 130.732 276.37 C 163.415 243.256 207.017 224.662 253.506 224.012 C 253.581 224.011 253.655 224.011 253.73 224.011 L 256 224 L 258.27 224.01 C 258.345 224.01 258.419 224.01 258.494 224.011 C 304.983 224.66 348.585 243.255 381.268 276.369 C 413.983 309.517 432 353.422 432 400 C 432 414.528 430.22 428.987 426.708 442.976 C 424.885 450.238 418.365 455.083 411.202 455.084 Z " fill="rgb(29,131,72)"/></g></g></svg>