<?xml version="1.0" encoding="iso-8859-1"?>
<!-- Generator: Adobe Illustrator 19.0.0, SVG Export Plug-In . SVG Version: 6.00 Build 0)  -->
<svg version="1.1" id="Layer_1" xmlns="http://www.w3.org/2000/svg" xmlns:xlink="http://www.w3.org/1999/xlink" x="0px" y="0px"
	 viewBox="0 0 511.999 511.999" style="enable-background:new 0 0 511.999 511.999;" xml:space="preserve">
<path style="fill:#F4B759;" d="M305.383,471.688h-30.889v-40.772c0-8.947-7.253-16.2-16.2-16.2c-8.947,0-16.2,7.253-16.2,16.2
	v40.772h-8.888c-8.946,0-16.2,7.253-16.2,16.2s7.253,16.2,16.2,16.2h72.176c8.947,0,16.2-7.253,16.2-16.2
	C321.581,478.94,314.329,471.688,305.383,471.688z"/>
<path style="opacity:0.1;enable-background:new    ;" d="M305.383,471.688h-30.889v-40.772c0-8.947-7.253-16.2-16.2-16.2
	c-8.947,0-16.2,7.253-16.2,16.2v40.772h-8.888c-8.946,0-16.2,7.253-16.2,16.2s7.253,16.2,16.2,16.2h72.176
	c8.947,0,16.2-7.253,16.2-16.2C321.581,478.94,314.329,471.688,305.383,471.688z"/>
<path style="opacity:0.1;enable-background:new    ;" d="M258.293,414.715c-8.947,0-16.2,7.253-16.2,16.2v30.267h1.425
	c10.761,0,21.154-1.566,30.974-4.469v-25.798C274.493,421.969,267.24,414.715,258.293,414.715z"/>
<path style="fill:#F4B759;" d="M230.371,471.688h-30.889v-40.772c0-8.947-7.253-16.2-16.2-16.2s-16.2,7.253-16.2,16.2v40.772h-8.888
	c-8.947,0-16.2,7.253-16.2,16.2s7.253,16.2,16.2,16.2h72.176c8.947,0,16.2-7.253,16.2-16.2
	C246.571,478.94,239.318,471.688,230.371,471.688z"/>
<path style="opacity:0.1;enable-background:new    ;" d="M183.282,414.715c-8.947,0-16.2,7.253-16.2,16.2v27.396
	c8.242,1.877,16.82,2.871,25.63,2.871h6.77v-30.267C199.482,421.969,192.23,414.715,183.282,414.715z"/>
<path style="fill:#E8E8E8;" d="M243.52,449.577h-50.806c-63.507,0-114.99-51.482-114.99-114.99v-25.334
	c0-13.843,15.299-22.219,26.962-14.76l19.62,12.55c7.724,4.94,17.219,6.268,26.002,3.634l0,0
	c56.471-16.929,116.5-18.066,173.572-3.287l28.712,7.434v25.679C352.591,400.743,303.758,449.577,243.52,449.577z"/>
<path style="opacity:0.05;enable-background:new    ;" d="M323.879,307.391c-57.071-14.779-117.101-13.642-173.572,3.287l0,0
	c-0.959,0.287-1.927,0.519-2.899,0.712c28.786,22.201,68.637,35.781,115.999,35.781c34.049,0,64.217-7.019,89.184-19.211v-13.135
	L323.879,307.391z"/>
<g>
	<path style="fill:#E8E8E8;" d="M260.168,97.391c-10.438,0-18.9-8.462-18.9-18.9c0-27.999,21.045-55.337,41.836-67.872
		c8.94-5.388,20.555-2.512,25.944,6.427c5.391,8.939,2.512,20.554-6.426,25.945c-12.548,7.565-23.554,24.154-23.554,35.5
		C279.067,88.929,270.606,97.391,260.168,97.391z"/>
	<path style="fill:#E8E8E8;" d="M434.273,198.794c0,74.071-66.43,134.116-166.046,134.116s-166.046-60.046-166.046-134.116
		c0-74.071,66.43-134.116,166.046-134.116C367.844,64.677,434.273,124.723,434.273,198.794z"/>
</g>
<path style="fill:#F4B759;" d="M240.971,222.369L240.971,222.369c0,31.897,43.901,54.99,88.209,46.4l0,0
	c31.937-6.192,56.004-23.808,63.752-45.547C348.551,223.222,240.971,222.369,240.971,222.369z"/>
<path style="opacity:0.1;enable-background:new    ;" d="M240.971,222.369L240.971,222.369c0,31.897,43.901,54.99,88.209,46.4l0,0
	c31.937-6.192,56.004-23.808,63.752-45.547C348.551,223.222,240.971,222.369,240.971,222.369z"/>
<path style="fill:#F4B759;" d="M408.813,213.932h-7.332l-43.799-43.005c-23.497-23.072-61.196-22.9-84.482,0.386l-29.801,29.801
	c-12.703,12.703-3.706,34.421,14.258,34.421h151.156c5.966,0,10.802-4.836,10.802-10.802S414.779,213.932,408.813,213.932z"/>
<path style="opacity:0.1;enable-background:new    ;" d="M295.472,193.83c-1.869,0-3.747-0.659-5.255-2
	c-3.265-2.903-3.558-7.905-0.654-11.17l5.284-5.942c2.904-3.264,7.903-3.559,11.171-0.654c3.265,2.903,3.558,7.905,0.654,11.17
	l-5.284,5.942C299.824,192.933,297.653,193.83,295.472,193.83z"/>
<path style="opacity:0.05;enable-background:new    ;" d="M196.638,410.103l-45.711-8.424
	c-14.183-2.614-24.478-14.979-24.478-29.402l0,0c0-9.355,7.064-17.2,16.368-18.177l56.224-5.908
	c18.479-1.942,34.571,12.549,34.571,31.129l0,0C233.611,398.88,215.873,413.648,196.638,410.103z"/>
<path d="M229.514,152.206c-12.199,0-22.121,9.924-22.121,22.121c0,4.37,3.542,7.912,7.912,7.912c4.37,0,7.912-3.543,7.912-7.912
	c0-3.473,2.825-6.297,6.297-6.297s6.297,2.825,6.297,6.297c0,4.37,3.542,7.912,7.912,7.912c4.37,0,7.912-3.543,7.912-7.912
	C251.635,162.129,241.712,152.206,229.514,152.206z M228.55,350.18c-8.246-7.424-19.296-11.013-30.338-9.858l-56.225,5.908
	c-13.37,1.405-23.452,12.603-23.452,26.046c0,18.239,13.019,33.877,30.957,37.183l45.711,8.424c2.381,0.438,4.771,0.654,7.146,0.654
	c9.084,0,17.935-3.159,25.05-9.082c8.976-7.472,14.124-18.457,14.124-30.135C241.524,368.226,236.795,357.605,228.55,350.18z
	 M217.276,397.295c-5.354,4.457-12.354,6.29-19.204,5.027l-45.711-8.424c-10.43-1.922-18.001-11.014-18.001-21.62
	c0-5.32,3.99-9.753,9.283-10.309l56.225-5.908c0.847-0.089,1.69-0.133,2.527-0.133c5.758,0,11.21,2.09,15.567,6.013
	c4.99,4.493,7.738,10.666,7.738,17.38C225.699,386.287,222.629,392.839,217.276,397.295z M393.679,97.886
	c-25.483-21.284-59.217-34.883-96.952-39.426c3.07-3.553,6.544-6.623,9.981-8.695c6.134-3.698,10.459-9.563,12.181-16.514
	c1.723-6.952,0.634-14.159-3.065-20.291c-7.632-12.66-24.143-16.748-36.804-9.117c-16.647,10.037-35.628,30.584-42.754,55.056
	c-36.334,4.941-68.786,18.357-93.486,38.987c-31.28,26.125-48.507,61.961-48.507,100.907s17.226,74.782,48.507,100.907
	c1.472,1.229,2.98,2.423,4.506,3.602c-6.367,1.684-13.146,0.637-18.714-2.924l-19.621-12.55c-7.951-5.085-17.64-5.414-25.916-0.883
	c-8.278,4.531-13.22,12.872-13.22,22.308v25.334c0,56.144,37.843,103.615,89.359,118.248v10.94h-0.976
	c-13.295,0-24.111,10.816-24.111,24.111c0,13.296,10.817,24.112,24.111,24.112h72.176c0.487,0,0.972-0.019,1.452-0.047
	c0.415,0.026,0.879,0.047,1.383,0.047h72.175c13.297,0,24.113-10.816,24.113-24.112c0-13.295-10.816-24.111-24.113-24.111h-22.976
	v-12.94c45.446-16.065,78.097-59.452,78.097-110.33v-19.561c12.136-5.869,23.279-12.977,33.175-21.243
	c31.281-26.125,48.507-61.961,48.507-100.907S424.959,124.011,393.679,97.886z M287.187,17.395
	c5.19-3.127,11.956-1.452,15.085,3.737c1.515,2.513,1.961,5.466,1.255,8.314c-0.706,2.848-2.479,5.252-4.992,6.768
	c-7.759,4.679-15.079,12.232-20.275,20.763c-3.321-0.136-6.665-0.211-10.033-0.211c-4.946,0-9.842,0.155-14.686,0.448
	C260.536,39.578,274.646,24.956,287.187,17.395z M230.372,496.175h-72.176c-4.569,0-8.287-3.718-8.287-8.288
	c0-4.569,3.718-8.287,8.287-8.287h8.888c4.371,0,7.912-3.543,7.912-7.912v-15.482c5.419,0.786,10.953,1.215,16.574,1.268v14.213
	c0,4.37,3.542,7.912,7.912,7.912h30.889c4.569,0,8.287,3.718,8.287,8.287C238.658,492.457,234.941,496.175,230.372,496.175z
	 M207.395,463.775v-6.288h26.788v6.288h-0.975c-0.508,0-0.972,0.021-1.385,0.047c-0.48-0.029-0.963-0.047-1.451-0.047H207.395z
	 M305.381,479.6c4.57,0,8.289,3.718,8.289,8.287c0,4.57-3.718,8.288-8.289,8.288h-52.366c0.949-2.586,1.467-5.377,1.467-8.288
	c0-5.351-1.754-10.3-4.716-14.303c0.15-0.609,0.238-1.241,0.238-1.896v-14.382c5.64-0.31,11.174-1.021,16.576-2.105v16.487
	c0,4.37,3.542,7.912,7.912,7.912H305.381z M344.679,340.505c0,55.779-45.38,101.159-101.159,101.159h-50.806
	c-59.043,0-107.077-48.035-107.077-107.077v-25.334c0-3.565,1.867-6.716,4.994-8.428c3.126-1.712,6.787-1.588,9.791,0.333
	l19.621,12.549c9.676,6.189,21.535,7.847,32.536,4.549c3.939-1.18,7.986-2.281,12.052-3.325
	c29.005,16.817,64.872,25.891,103.597,25.891c27.385,0,53.339-4.54,76.451-13.142L344.679,340.505L344.679,340.505z M408.813,206.02
	h-4.097l-24.26-23.821c0.266,0.027,0.535,0.041,0.808,0.041c4.371,0,7.912-3.543,7.912-7.912c0-3.473,2.825-6.297,6.297-6.297
	s6.297,2.825,6.297,6.297c0,4.37,3.543,7.912,7.912,7.912c4.371,0,7.912-3.543,7.912-7.912c0-12.199-9.923-22.121-22.121-22.121
	c-12.199,0-22.121,9.924-22.121,22.121c0,0.325,0.025,0.644,0.063,0.959l-10.19-10.005c-26.484-26.003-69.378-25.807-95.622,0.437
	l-29.799,29.801c-8.183,8.181-10.515,19.906-6.087,30.597c0.597,1.441,1.302,2.803,2.09,4.09
	c2.314,12.202,10.115,23.556,22.165,32.147c14.635,10.434,34.409,16.098,54.601,16.098c6.716,0,13.477-0.627,20.112-1.913
	c25.34-4.912,46.856-16.875,59.776-33.09h18.351c3.4,0,6.581-0.926,9.332-2.517c-7.16,17.572-18.865,33.475-34.611,46.626
	c-28.909,24.145-69.861,37.443-115.307,37.443s-86.397-13.297-115.306-37.443c-27.618-23.066-42.827-54.589-42.827-88.762
	s15.209-65.697,42.827-88.762c28.908-24.145,69.86-37.443,115.306-37.443s86.397,13.297,115.307,37.443
	c27.618,23.066,42.827,54.589,42.827,88.762c0,5.673-0.428,11.269-1.253,16.769C421.893,209.875,415.8,206.02,408.813,206.02z
	 M257.657,227.622c-5.125,0-9.356-2.827-11.319-7.563c-1.961-4.736-0.97-9.727,2.656-13.352l29.801-29.801
	c10.127-10.127,23.482-15.196,36.845-15.196c13.2,0,26.405,4.95,36.5,14.861l43.799,43.005c1.479,1.453,3.47,2.266,5.544,2.266
	h7.332c1.593,0,2.888,1.297,2.888,2.888c0,1.593-1.296,2.89-2.888,2.89L257.657,227.622L257.657,227.622z M368.105,243.447
	c-10.508,8.311-24.518,14.47-40.43,17.555c-22.464,4.357-46.424-0.063-62.514-11.535c-2.26-1.611-4.708-3.623-7.007-6.02H368.105z"
	/>
<g>
</g>
<g>
</g>
<g>
</g>
<g>
</g>
<g>
</g>
<g>
</g>
<g>
</g>
<g>
</g>
<g>
</g>
<g>
</g>
<g>
</g>
<g>
</g>
<g>
</g>
<g>
</g>
<g>
</g>
</svg>
