<?xml version="1.0" encoding="UTF-8"?>
<svg xmlns="http://www.w3.org/2000/svg" xmlns:xlink="http://www.w3.org/1999/xlink" width="52pt" height="52pt" viewBox="0 0 52 52" version="1.1">
<g id="surface1">
<path style="fill:none;stroke-width:10.4328;stroke-linecap:butt;stroke-linejoin:miter;stroke:rgb(60.392157%,60.392157%,61.176471%);stroke-opacity:1;stroke-dasharray:9.1808,9.1808;stroke-miterlimit:10;" d="M 75.991587 113.401442 L 123.294772 97.310697 " transform="matrix(0.173333,0,0,0.173333,0,0)"/>
<path style="fill:none;stroke-width:10;stroke-linecap:round;stroke-linejoin:round;stroke:rgb(0%,64.705882%,31.372549%);stroke-opacity:1;stroke-miterlimit:10;" d="M 134.810697 94.696514 L 107.001202 56.497897 L 106.798377 50.999099 C 106.798377 50.999099 104.4997 29.905349 94.696514 32.69982 C 84.893329 35.494291 65.399639 43.697416 65.399639 43.697416 C 65.399639 43.697416 60.689603 45.703125 62.898137 51.697716 C 66.706731 62.199519 71.709736 64.701022 71.709736 64.701022 L 69.411058 126.900541 " transform="matrix(0.173333,0,0,0.173333,0,0)"/>
<path style="fill:none;stroke-width:10;stroke-linecap:round;stroke-linejoin:round;stroke:rgb(0%,64.705882%,31.372549%);stroke-opacity:1;stroke-miterlimit:10;" d="M 72.092849 65.489784 L 102.606671 53.207632 " transform="matrix(0.173333,0,0,0.173333,0,0)"/>
<path style="fill:none;stroke-width:10;stroke-linecap:round;stroke-linejoin:round;stroke:rgb(94.901961%,43.921569%,13.333333%);stroke-opacity:1;stroke-miterlimit:10;" d="M 123.294772 128.90625 L 129.199219 105.401142 L 160.208834 57.692308 C 160.208834 57.692308 161.808894 54.289363 167.600661 55.39363 C 173.302284 56.610577 243.502103 90.392127 243.502103 90.392127 C 243.502103 90.392127 246.589543 91.992188 245.710637 96.792368 C 244.899339 100.691106 235.907452 128.79357 235.907452 128.79357 " transform="matrix(0.173333,0,0,0.173333,0,0)"/>
<path style="fill:none;stroke-width:10.4328;stroke-linecap:butt;stroke-linejoin:miter;stroke:rgb(60.392157%,60.392157%,61.176471%);stroke-opacity:1;stroke-dasharray:9.1808,9.1808;stroke-miterlimit:10;" d="M 152.591647 85.704627 L 235.298978 122.708834 " transform="matrix(0.173333,0,0,0.173333,0,0)"/>
<path style="fill:none;stroke-width:10;stroke-linecap:round;stroke-linejoin:round;stroke:rgb(0%,64.705882%,31.372549%);stroke-opacity:1;stroke-miterlimit:10;" d="M 47.010216 134.202224 L 255.401142 134.810697 C 255.401142 134.810697 261.305589 136.207933 262.094351 140.805288 C 262.905649 145.402644 262.409856 156.693209 262.409856 156.693209 C 262.409856 156.693209 261.711238 166.090745 256.302584 170.304988 C 250.89393 174.496695 219.906851 260.291466 219.906851 260.291466 C 219.906851 260.291466 217.991286 265.204327 213.010817 267.097356 C 208.007812 268.990385 87.507512 267.097356 87.507512 267.097356 C 87.507512 267.097356 81.40024 264.888822 79.507212 260.291466 C 77.591647 255.694111 49.692007 174.609375 49.692007 174.609375 C 49.692007 174.609375 39.708534 165.301983 38.604267 160.298978 C 37.409856 155.295974 38.604267 142.698317 38.604267 142.698317 C 38.604267 142.698317 40.204327 134.202224 47.010216 134.202224 Z M 47.010216 134.202224 " transform="matrix(0.173333,0,0,0.173333,0,0)"/>
<path style="fill:none;stroke-width:10;stroke-linecap:round;stroke-linejoin:round;stroke:rgb(0%,64.705882%,31.372549%);stroke-opacity:1;stroke-miterlimit:10;" d="M 41.398738 165.099159 L 259.502704 165.099159 " transform="matrix(0.173333,0,0,0.173333,0,0)"/>
<path style="fill:none;stroke-width:10;stroke-linecap:round;stroke-linejoin:round;stroke:rgb(0%,64.705882%,31.372549%);stroke-opacity:1;stroke-miterlimit:10;" d="M 149.594351 241.992188 L 149.594351 186.192909 " transform="matrix(0.173333,0,0,0.173333,0,0)"/>
<path style="fill:none;stroke-width:10;stroke-linecap:round;stroke-linejoin:round;stroke:rgb(0%,64.705882%,31.372549%);stroke-opacity:1;stroke-miterlimit:10;" d="M 183.894231 241.992188 L 203.90625 186.192909 " transform="matrix(0.173333,0,0,0.173333,0,0)"/>
<path style="fill:none;stroke-width:10;stroke-linecap:round;stroke-linejoin:round;stroke:rgb(0%,64.705882%,31.372549%);stroke-opacity:1;stroke-miterlimit:10;" d="M 118.607272 241.992188 L 98.009315 186.192909 " transform="matrix(0.173333,0,0,0.173333,0,0)"/>
<path style="fill:none;stroke-width:11;stroke-linecap:round;stroke-linejoin:round;stroke:rgb(91.764706%,10.980392%,14.117647%);stroke-opacity:1;stroke-miterlimit:10;" d="M 234.690505 130.190805 L 261.395733 228.605769 " transform="matrix(0.173333,0,0,0.173333,0,0)"/>
<path style="fill:none;stroke-width:11;stroke-linecap:round;stroke-linejoin:round;stroke:rgb(91.764706%,10.980392%,14.117647%);stroke-opacity:1;stroke-miterlimit:10;" d="M 62.402344 130.39363 L 40.091647 225.698618 " transform="matrix(0.173333,0,0,0.173333,0,0)"/>
</g>
</svg>
