<svg width="22" height="20" xmlns="http://www.w3.org/2000/svg"><path d="M10.688.001c5.9 0 10.684 3.83 10.684 8.555 0 1.65-.584 3.192-1.595 4.498-.05.075-.116.157-.198.248l-.006.007a9.263 9.263 0 01-1.162 1.159c-2.955 2.73-7.818 5.982-8.46 5.48-.557-.436.92-2.568-.784-2.923a13.561 13.561 0 01-.355-.045h-.003C3.805 16.267.004 12.767.004 8.555.004 3.832 4.788.001 10.688.001zM4.49 11.285h2.155c.307 0 .557-.25.557-.557v-.047a.559.559 0 00-.557-.557H5.093V6.595a.559.559 0 00-.557-.557h-.047a.559.559 0 00-.557.557v4.133c0 .306.25.557.557.557zm13.352-2.59v-.047a.559.559 0 00-.557-.557h-1.551V7.21h1.55c.307 0 .558-.25.558-.557v-.047a.559.559 0 00-.557-.557H15.13a.559.559 0 00-.557.557v4.133c0 .306.25.557.557.557h2.155c.306 0 .557-.25.557-.557v-.047a.559.559 0 00-.557-.557h-1.551v-.882h1.55c.307 0 .558-.25.558-.557zm-4.144 2.424a.556.556 0 00.162-.391V6.595a.559.559 0 00-.558-.557h-.046a.559.559 0 00-.557.557v2.426L10.684 6.32a.558.558 0 00-.484-.282h-.047a.559.559 0 00-.557.557v4.133c0 .307.25.557.557.557h.047c.306 0 .557-.25.557-.557V8.257l2.029 2.77c.012.02.026.038.04.056a.468.468 0 00.217.16.552.552 0 00.212.042h.046c.091 0 .18-.022.26-.065a.392.392 0 00.136-.1zm-5.489.166h.047c.306 0 .557-.25.557-.557V6.595a.559.559 0 00-.557-.557h-.047a.559.559 0 00-.557.557v4.133c0 .306.25.557.557.557z" fill="#FFF" fill-rule="evenodd"/></svg>