<svg width="21" height="20" xmlns="http://www.w3.org/2000/svg"><g fill="#FFF"><path d="M17.17 15.36h-1.973v.973c0 .27.033.46.1.565.07.106.185.157.35.157.172 0 .29-.044.36-.133.066-.09.102-.286.102-.59v-.234h1.062v.265c0 .53-.129.927-.39 1.197-.257.267-.643.4-1.157.4-.464 0-.828-.143-1.093-.426-.264-.282-.399-.674-.399-1.17v-2.32c0-.446.148-.813.44-1.095.292-.282.667-.422 1.13-.422.472 0 .835.13 1.088.391.254.262.38.636.38 1.125v1.317zm-3.578 1.391c0 .365-.081.646-.243.84-.161.196-.396.293-.7.293a1.23 1.23 0 01-.542-.113 1.333 1.333 0 01-.44-.35v.396h-1.045V10.82h1.044v2.254a1.58 1.58 0 01.442-.358c.158-.083.316-.123.477-.123.327 0 .575.109.747.329.174.22.26.542.26.965v2.865zm-3.745 1.066H8.816v-.565a2.2 2.2 0 01-.596.476 1.242 1.242 0 01-.6.165c-.24 0-.417-.076-.539-.23-.12-.155-.181-.384-.181-.693v-4.316h1.032v3.96c0 .123.023.211.064.265.045.057.115.083.212.083a.59.59 0 00.288-.108 1.41 1.41 0 00.32-.279v-3.921h1.031v5.163zm-3.4-5.981H5.243v5.981H4.08v-5.981H2.877v-1.017h3.57v1.017zm10.228-2.332H3.727A3.728 3.728 0 000 13.232v2.995a3.728 3.728 0 003.727 3.728h12.948a3.727 3.727 0 003.726-3.728v-2.995a3.727 3.727 0 00-3.726-3.728z"/><path d="M15.657 13.43c-.164 0-.282.046-.353.142-.073.09-.107.246-.107.462v.522h.912v-.522c0-.216-.037-.372-.11-.462-.069-.096-.184-.143-.342-.143m-3.559-.017a.508.508 0 00-.218.05.741.741 0 00-.214.158v3.217a.893.893 0 00.245.183c.08.035.162.055.25.055.127 0 .22-.036.279-.11.058-.074.088-.19.088-.355v-2.667c0-.176-.035-.307-.108-.397a.398.398 0 00-.322-.134M5.422 7.71H6.73V4.513L8.253 0h-1.33l-.81 3.082h-.082L5.181 0H3.865l1.558 4.656zm4.121-4.43c0-.123.044-.223.13-.301a.512.512 0 01.348-.114.57.57 0 01.372.114.372.372 0 01.142.301v3.1a.466.466 0 01-.14.358.522.522 0 01-.374.13c-.154 0-.272-.04-.356-.128a.5.5 0 01-.122-.361V3.28zm.481 4.574c.529 0 .943-.138 1.245-.415.3-.278.45-.659.45-1.145V3.356c0-.433-.153-.79-.46-1.065-.307-.273-.702-.412-1.183-.412-.527 0-.948.13-1.261.392-.312.26-.469.61-.469 1.052v2.948c0 .485.153.867.458 1.154.305.286.712.43 1.22.43zm3.449-.06c.218 0 .443-.063.674-.182.232-.122.456-.3.668-.531v.63h1.163V2.024h-1.163v4.318a1.608 1.608 0 01-.357.305c-.131.08-.24.12-.324.12-.11 0-.19-.03-.237-.092-.047-.06-.075-.156-.075-.29v-4.36h-1.16v4.753c0 .339.068.592.203.76.138.171.338.257.608.257"/></g></svg>