<?xml version="1.0" standalone="no"?><!-- Generator: Gravit.io --><svg xmlns="http://www.w3.org/2000/svg" xmlns:xlink="http://www.w3.org/1999/xlink" style="isolation:isolate" viewBox="0 0 512 512" width="512" height="512"><defs><clipPath id="_clipPath_l5zUFvwGSU6RF3UzhONQPQ8DXicDP0l5"><rect width="512" height="512"/></clipPath></defs><g clip-path="url(#_clipPath_l5zUFvwGSU6RF3UzhONQPQ8DXicDP0l5)"><g><g><path d=" M 417.865 155.623 C 405.827 160.904 392.999 164.404 379.625 166.104 C 393.383 157.889 403.884 144.981 408.821 129.421 C 395.993 137.069 381.83 142.472 366.736 145.486 C 354.556 132.517 337.196 124.484 318.257 124.484 C 281.514 124.484 251.933 154.308 251.933 190.869 C 251.933 196.13 252.378 201.188 253.471 206.004 C 198.295 203.313 149.472 176.868 116.674 136.584 C 110.948 146.518 107.59 157.889 107.59 170.13 C 107.59 193.115 119.426 213.49 137.069 225.286 C 126.407 225.084 115.946 221.988 107.084 217.112 C 107.084 217.314 107.084 217.577 107.084 217.84 C 107.084 250.092 130.089 276.881 160.257 283.052 C 154.854 284.529 148.967 285.237 142.856 285.237 C 138.607 285.237 134.318 284.994 130.291 284.104 C 138.89 310.387 163.292 329.709 192.306 330.337 C 169.726 348 141.055 358.643 110.018 358.643 C 104.575 358.643 99.355 358.4 94.135 357.732 C 123.533 376.691 158.375 387.516 195.948 387.516 C 318.075 387.516 384.845 286.35 384.845 198.659 C 384.845 195.725 384.744 192.893 384.602 190.08 C 397.774 180.733 408.841 169.058 417.865 155.623 Z " fill="rgb(0,0,0)"/></g></g><path d="M 89.578 17.272 L 422.422 17.272 C 461.787 17.272 493.746 49.231 493.746 88.595 L 493.746 423.405 C 493.746 462.769 461.787 494.728 422.422 494.728 L 89.578 494.728 C 50.213 494.728 18.254 462.769 18.254 423.405 L 18.254 88.595 C 18.254 49.231 50.213 17.272 89.578 17.272 Z" style="fill:none;stroke:#000000;stroke-width:28;stroke-linecap:square;stroke-miterlimit:2;"/></g></svg>